<?xml version="1.0" encoding="UTF-8"?>
<svg id="_Слой_1" data-name="Слой_1" xmlns="http://www.w3.org/2000/svg" version="1.1" viewBox="0 0 24 24">
  <!-- Generator: Adobe Illustrator 30.3.0, SVG Export Plug-In . SVG Version: 2.1.3 Build 182)  -->
  <defs>
    <style>
      .st0 {
        fill: #fff;
      }
    </style>
  </defs>
  <path class="st0" d="M20.8.9l-2.8,9s-2.6-2.1-6-2.1c-3.4,0-5.3,1.8-5.3,1.8L3.1,0S-4,22.5,12.1,23.9C28.1,25.4,20.8.9,20.8.9ZM6.3,14.1c-.3-.2-.6-.5-.7-.8.3.2.6.3.9.4.3,0,.6.1.9.1.3,0,.6,0,.9-.1.3,0,.6-.2.9-.4,0,.4-.4.7-.7.8-.3.2-.7.3-1.1.3-.4,0-.8,0-1.1-.3ZM15.7,19.6c-.8,1-2.1,1.6-3.4,1.5-1,0-2.1-.4-2.9-1,0,0-.4-.3-.6-.5-.8-1-1.2-2.3-.9-3.5.3,1.1.8,2.1,1.6,2.8.8.7,1.8,1,2.8,1s1.4-.2,2-.5h0s0,0,0,0c.2-.1.5-.3.7-.5.8-.7,1.4-1.6,1.6-2.8.3,1.1-.1,2.5-1,3.4ZM17,14.6c-.5,0-1-.4-1-1s.4-1,1-1,1,.4,1,1-.4,1-1,1Z"/>
</svg>