<?xml version="1.0" encoding="UTF-8"?>
<svg id="_Слой_1" data-name="Слой_1" xmlns="http://www.w3.org/2000/svg" version="1.1" viewBox="0 0 24 24">
  <!-- Generator: Adobe Illustrator 30.3.0, SVG Export Plug-In . SVG Version: 2.1.3 Build 182)  -->
  <defs>
    <style>
      .st0 {
        fill: #fff;
      }
    </style>
  </defs>
  <path class="st0" d="M20.9.9l-2.8,9s-2.6-2.1-6-2.1-5.3,1.8-5.3,1.8L3.1,0S-4,22.5,12.1,23.9C28.1,25.3,20.9.9,20.9.9ZM16.5,19c.4.4.4,1,0,1.4-.2.2-.5.3-.7.3s-.5-.1-.7-.3l-3.1-3.1-3.1,3.1c-.2.2-.4.3-.7.3s-.5-.1-.7-.3c-.4-.4-.4-1,0-1.4l3.1-3.1-3.1-3.1c-.4-.4-.4-1,0-1.4.4-.4,1-.4,1.4,0l3.1,3.1,3.1-3.1c.4-.4,1-.4,1.4,0s.4,1,0,1.4l-3.1,3.1,3.1,3.1Z"/>
</svg>