<svg width="292" height="72" viewBox="0 0 292 72" fill="none" xmlns="http://www.w3.org/2000/svg">
<rect width="292" height="72" rx="20" fill="url(#paint0_linear_54_37356)" fill-opacity="0.84"/>
<path d="M41.6136 29.8636V41.5H40.2045V31.1136H34.3409V41.5H32.9318V29.8636H41.6136ZM47.8196 41.6818C47.0317 41.6818 46.3404 41.4943 45.7457 41.1193C45.1548 40.7443 44.6927 40.2197 44.3594 39.5455C44.0298 38.8712 43.8651 38.0833 43.8651 37.1818C43.8651 36.2727 44.0298 35.4792 44.3594 34.8011C44.6927 34.1231 45.1548 33.5966 45.7457 33.2216C46.3404 32.8466 47.0317 32.6591 47.8196 32.6591C48.6075 32.6591 49.2969 32.8466 49.8878 33.2216C50.4825 33.5966 50.9446 34.1231 51.2741 34.8011C51.6075 35.4792 51.7741 36.2727 51.7741 37.1818C51.7741 38.0833 51.6075 38.8712 51.2741 39.5455C50.9446 40.2197 50.4825 40.7443 49.8878 41.1193C49.2969 41.4943 48.6075 41.6818 47.8196 41.6818ZM47.8196 40.4773C48.4181 40.4773 48.9105 40.3239 49.2969 40.017C49.6832 39.7102 49.9692 39.3068 50.1548 38.8068C50.3404 38.3068 50.4332 37.7652 50.4332 37.1818C50.4332 36.5985 50.3404 36.0549 50.1548 35.5511C49.9692 35.0473 49.6832 34.6402 49.2969 34.3295C48.9105 34.0189 48.4181 33.8636 47.8196 33.8636C47.2211 33.8636 46.7287 34.0189 46.3423 34.3295C45.956 34.6402 45.67 35.0473 45.4844 35.5511C45.2988 36.0549 45.206 36.5985 45.206 37.1818C45.206 37.7652 45.2988 38.3068 45.4844 38.8068C45.67 39.3068 45.956 39.7102 46.3423 40.017C46.7287 40.3239 47.2211 40.4773 47.8196 40.4773ZM52.8892 44V40.25H53.6165C53.7945 40.0644 53.9479 39.8636 54.0767 39.6477C54.2055 39.4318 54.3172 39.1761 54.4119 38.8807C54.5104 38.5814 54.5938 38.2178 54.6619 37.7898C54.7301 37.358 54.7907 36.8371 54.8438 36.2273L55.1392 32.7727H60.6847V40.25H62.0256V44H60.6847V41.5H54.2301V44H52.8892ZM55.1392 40.25H59.3438V34.0227H56.3892L56.1619 36.2273C56.0672 37.1402 55.9498 37.9375 55.8097 38.6193C55.6695 39.3011 55.446 39.8447 55.1392 40.25ZM63.8054 44.7727V32.7727H65.1009V34.1591H65.2599C65.3584 34.0076 65.4948 33.8144 65.669 33.5795C65.8471 33.3409 66.1009 33.1288 66.4304 32.9432C66.7637 32.7538 67.2145 32.6591 67.7827 32.6591C68.5175 32.6591 69.1652 32.8428 69.7259 33.2102C70.2865 33.5777 70.724 34.0985 71.0384 34.7727C71.3527 35.447 71.5099 36.2424 71.5099 37.1591C71.5099 38.0833 71.3527 38.8845 71.0384 39.5625C70.724 40.2367 70.2884 40.7595 69.7315 41.1307C69.1747 41.4981 68.5327 41.6818 67.8054 41.6818C67.2448 41.6818 66.7959 41.589 66.4588 41.4034C66.1217 41.214 65.8622 41 65.6804 40.7614C65.4986 40.5189 65.3584 40.3182 65.2599 40.1591H65.1463V44.7727H63.8054ZM65.1236 37.1364C65.1236 37.7955 65.2202 38.3769 65.4134 38.8807C65.6065 39.3807 65.8887 39.7727 66.2599 40.0568C66.6312 40.3371 67.0857 40.4773 67.6236 40.4773C68.1842 40.4773 68.652 40.3295 69.027 40.0341C69.4058 39.7348 69.6899 39.3333 69.8793 38.8295C70.0724 38.322 70.169 37.7576 70.169 37.1364C70.169 36.5227 70.0743 35.9697 69.8849 35.4773C69.6993 34.9811 69.4171 34.589 69.0384 34.3011C68.6634 34.0095 68.1918 33.8636 67.6236 33.8636C67.0781 33.8636 66.6198 34.0019 66.2486 34.2784C65.8774 34.5511 65.5971 34.9337 65.4077 35.4261C65.2183 35.9148 65.1236 36.4848 65.1236 37.1364ZM77.1009 41.6818C76.313 41.6818 75.6217 41.4943 75.027 41.1193C74.4361 40.7443 73.974 40.2197 73.6406 39.5455C73.3111 38.8712 73.1463 38.0833 73.1463 37.1818C73.1463 36.2727 73.3111 35.4792 73.6406 34.8011C73.974 34.1231 74.4361 33.5966 75.027 33.2216C75.6217 32.8466 76.313 32.6591 77.1009 32.6591C77.8887 32.6591 78.5781 32.8466 79.169 33.2216C79.7637 33.5966 80.2259 34.1231 80.5554 34.8011C80.8887 35.4792 81.0554 36.2727 81.0554 37.1818C81.0554 38.0833 80.8887 38.8712 80.5554 39.5455C80.2259 40.2197 79.7637 40.7443 79.169 41.1193C78.5781 41.4943 77.8887 41.6818 77.1009 41.6818ZM77.1009 40.4773C77.6993 40.4773 78.1918 40.3239 78.5781 40.017C78.9645 39.7102 79.2505 39.3068 79.4361 38.8068C79.6217 38.3068 79.7145 37.7652 79.7145 37.1818C79.7145 36.5985 79.6217 36.0549 79.4361 35.5511C79.2505 35.0473 78.9645 34.6402 78.5781 34.3295C78.1918 34.0189 77.6993 33.8636 77.1009 33.8636C76.5024 33.8636 76.0099 34.0189 75.6236 34.3295C75.2372 34.6402 74.9512 35.0473 74.7656 35.5511C74.58 36.0549 74.4872 36.5985 74.4872 37.1818C74.4872 37.7652 74.58 38.3068 74.7656 38.8068C74.9512 39.3068 75.2372 39.7102 75.6236 40.017C76.0099 40.3239 76.5024 40.4773 77.1009 40.4773ZM89.5795 29.5L90.2614 30.3182C89.9962 30.5758 89.6894 30.7557 89.3409 30.858C88.9924 30.9602 88.5985 31.0227 88.1591 31.0455C87.7197 31.0682 87.2311 31.0909 86.6932 31.1136C86.0871 31.1364 85.5852 31.2841 85.1875 31.5568C84.7898 31.8295 84.483 32.2235 84.267 32.7386C84.0511 33.2538 83.9129 33.8864 83.8523 34.6364H83.9659C84.2614 34.0909 84.6705 33.6894 85.1932 33.4318C85.7159 33.1742 86.2765 33.0455 86.875 33.0455C87.5568 33.0455 88.1705 33.2045 88.7159 33.5227C89.2614 33.8409 89.6932 34.3125 90.0114 34.9375C90.3295 35.5625 90.4886 36.3333 90.4886 37.25C90.4886 38.1629 90.3258 38.9508 90 39.6136C89.678 40.2765 89.2254 40.7879 88.642 41.1477C88.0625 41.5038 87.3826 41.6818 86.6023 41.6818C85.822 41.6818 85.1383 41.4981 84.5511 41.1307C83.964 40.7595 83.5076 40.2102 83.1818 39.483C82.8561 38.7519 82.6932 37.8485 82.6932 36.7727V35.8409C82.6932 33.8977 83.0227 32.4242 83.6818 31.4205C84.3447 30.4167 85.3409 29.8977 86.6705 29.8636C87.1402 29.8485 87.5587 29.8447 87.9261 29.8523C88.2936 29.8598 88.6136 29.8428 88.8864 29.8011C89.1591 29.7595 89.3902 29.6591 89.5795 29.5ZM86.6023 40.4773C87.1288 40.4773 87.5814 40.3447 87.9602 40.0795C88.3428 39.8144 88.6364 39.4413 88.8409 38.9602C89.0455 38.4754 89.1477 37.9053 89.1477 37.25C89.1477 36.6136 89.0436 36.072 88.8352 35.625C88.6307 35.178 88.3371 34.8371 87.9545 34.6023C87.572 34.3674 87.1136 34.25 86.5795 34.25C86.1894 34.25 85.839 34.3163 85.5284 34.4489C85.2178 34.5814 84.9527 34.7765 84.733 35.0341C84.5133 35.2917 84.3428 35.6061 84.2216 35.9773C84.1042 36.3485 84.0417 36.7727 84.0341 37.25C84.0341 38.2273 84.2633 39.0095 84.7216 39.5966C85.1799 40.1837 85.8068 40.4773 86.6023 40.4773ZM98.3807 36.5227V37.7727H93.5625V36.5227H98.3807ZM93.8807 32.7727V41.5H92.5398V32.7727H93.8807ZM99.4034 32.7727V41.5H98.0625V32.7727H99.4034ZM105.511 41.6818C104.67 41.6818 103.945 41.4962 103.335 41.125C102.729 40.75 102.261 40.2273 101.932 39.5568C101.606 38.8826 101.443 38.0985 101.443 37.2045C101.443 36.3106 101.606 35.5227 101.932 34.8409C102.261 34.1553 102.72 33.6212 103.307 33.2386C103.898 32.8523 104.587 32.6591 105.375 32.6591C105.83 32.6591 106.278 32.7348 106.722 32.8864C107.165 33.0379 107.568 33.2841 107.932 33.625C108.295 33.9621 108.585 34.4091 108.801 34.9659C109.017 35.5227 109.125 36.2083 109.125 37.0227V37.5909H102.398V36.4318H107.761C107.761 35.9394 107.663 35.5 107.466 35.1136C107.273 34.7273 106.996 34.4223 106.636 34.1989C106.28 33.9754 105.86 33.8636 105.375 33.8636C104.841 33.8636 104.379 33.9962 103.989 34.2614C103.602 34.5227 103.305 34.8636 103.097 35.2841C102.888 35.7045 102.784 36.1553 102.784 36.6364V37.4091C102.784 38.0682 102.898 38.6269 103.125 39.0852C103.356 39.5398 103.676 39.8864 104.085 40.125C104.494 40.3598 104.97 40.4773 105.511 40.4773C105.864 40.4773 106.182 40.428 106.466 40.3295C106.754 40.2273 107.002 40.0758 107.21 39.875C107.419 39.6705 107.58 39.4167 107.693 39.1136L108.989 39.4773C108.852 39.9167 108.623 40.303 108.301 40.6364C107.979 40.9659 107.581 41.2235 107.108 41.4091C106.634 41.5909 106.102 41.6818 105.511 41.6818ZM114.824 41.6818C113.983 41.6818 113.258 41.4962 112.648 41.125C112.042 40.75 111.574 40.2273 111.244 39.5568C110.919 38.8826 110.756 38.0985 110.756 37.2045C110.756 36.3106 110.919 35.5227 111.244 34.8409C111.574 34.1553 112.032 33.6212 112.619 33.2386C113.21 32.8523 113.9 32.6591 114.688 32.6591C115.142 32.6591 115.591 32.7348 116.034 32.8864C116.477 33.0379 116.881 33.2841 117.244 33.625C117.608 33.9621 117.898 34.4091 118.114 34.9659C118.33 35.5227 118.438 36.2083 118.438 37.0227V37.5909H111.71V36.4318H117.074C117.074 35.9394 116.975 35.5 116.778 35.1136C116.585 34.7273 116.309 34.4223 115.949 34.1989C115.593 33.9754 115.172 33.8636 114.688 33.8636C114.153 33.8636 113.691 33.9962 113.301 34.2614C112.915 34.5227 112.617 34.8636 112.409 35.2841C112.201 35.7045 112.097 36.1553 112.097 36.6364V37.4091C112.097 38.0682 112.21 38.6269 112.438 39.0852C112.669 39.5398 112.989 39.8864 113.398 40.125C113.807 40.3598 114.282 40.4773 114.824 40.4773C115.176 40.4773 115.494 40.428 115.778 40.3295C116.066 40.2273 116.314 40.0758 116.523 39.875C116.731 39.6705 116.892 39.4167 117.006 39.1136L118.301 39.4773C118.165 39.9167 117.936 40.303 117.614 40.6364C117.292 40.9659 116.894 41.2235 116.42 41.4091C115.947 41.5909 115.415 41.6818 114.824 41.6818ZM130.818 36.5227V37.7727H126V36.5227H130.818ZM126.318 32.7727V41.5H124.977V32.7727H126.318ZM131.841 32.7727V41.5H130.5V32.7727H131.841ZM136.858 41.7045C136.305 41.7045 135.803 41.6004 135.352 41.392C134.902 41.1799 134.544 40.875 134.278 40.4773C134.013 40.0758 133.881 39.5909 133.881 39.0227C133.881 38.5227 133.979 38.1174 134.176 37.8068C134.373 37.4924 134.636 37.2462 134.966 37.0682C135.295 36.8902 135.659 36.7576 136.057 36.6705C136.458 36.5795 136.862 36.5076 137.267 36.4545C137.797 36.3864 138.227 36.3352 138.557 36.3011C138.89 36.2633 139.133 36.2008 139.284 36.1136C139.439 36.0265 139.517 35.875 139.517 35.6591V35.6136C139.517 35.053 139.364 34.6174 139.057 34.3068C138.754 33.9962 138.294 33.8409 137.676 33.8409C137.036 33.8409 136.534 33.9811 136.17 34.2614C135.807 34.5417 135.551 34.8409 135.403 35.1591L134.131 34.7045C134.358 34.1742 134.661 33.7614 135.04 33.4659C135.422 33.1667 135.839 32.9583 136.29 32.8409C136.744 32.7197 137.191 32.6591 137.631 32.6591C137.911 32.6591 138.233 32.6932 138.597 32.7614C138.964 32.8258 139.318 32.9602 139.659 33.1648C140.004 33.3693 140.29 33.678 140.517 34.0909C140.744 34.5038 140.858 35.0568 140.858 35.75V41.5H139.517V40.3182H139.449C139.358 40.5076 139.206 40.7102 138.994 40.9261C138.782 41.142 138.5 41.3258 138.148 41.4773C137.795 41.6288 137.366 41.7045 136.858 41.7045ZM137.062 40.5C137.593 40.5 138.04 40.3958 138.403 40.1875C138.771 39.9792 139.047 39.7102 139.233 39.3807C139.422 39.0511 139.517 38.7045 139.517 38.3409V37.1136C139.46 37.1818 139.335 37.2443 139.142 37.3011C138.953 37.3542 138.733 37.4015 138.483 37.4432C138.237 37.4811 137.996 37.5152 137.761 37.5455C137.53 37.572 137.343 37.5947 137.199 37.6136C136.85 37.6591 136.525 37.733 136.222 37.8352C135.922 37.9337 135.68 38.0833 135.494 38.2841C135.313 38.4811 135.222 38.75 135.222 39.0909C135.222 39.5568 135.394 39.9091 135.739 40.1477C136.087 40.3826 136.528 40.5 137.062 40.5ZM147.987 41.5V29.8636H152.055C152.866 29.8636 153.535 30.0038 154.061 30.2841C154.588 30.5606 154.98 30.9337 155.237 31.4034C155.495 31.8693 155.624 32.3864 155.624 32.9545C155.624 33.4545 155.535 33.8674 155.357 34.1932C155.182 34.5189 154.951 34.7765 154.663 34.9659C154.379 35.1553 154.071 35.2955 153.737 35.3864V35.5C154.093 35.5227 154.451 35.6477 154.811 35.875C155.171 36.1023 155.472 36.428 155.714 36.8523C155.957 37.2765 156.078 37.7955 156.078 38.4091C156.078 38.9924 155.946 39.517 155.68 39.983C155.415 40.4489 154.997 40.8182 154.425 41.0909C153.853 41.3636 153.108 41.5 152.192 41.5H147.987ZM149.396 40.25H152.192C153.112 40.25 153.766 40.072 154.152 39.7159C154.542 39.3561 154.737 38.9205 154.737 38.4091C154.737 38.0152 154.637 37.6515 154.436 37.3182C154.235 36.9811 153.949 36.7121 153.578 36.5114C153.207 36.3068 152.768 36.2045 152.26 36.2045H149.396V40.25ZM149.396 34.9773H152.01C152.434 34.9773 152.817 34.8939 153.158 34.7273C153.502 34.5606 153.775 34.3258 153.976 34.0227C154.18 33.7197 154.283 33.3636 154.283 32.9545C154.283 32.4432 154.105 32.0095 153.749 31.6534C153.393 31.2936 152.828 31.1136 152.055 31.1136H149.396V34.9773ZM161.871 41.6818C161.03 41.6818 160.304 41.4962 159.695 41.125C159.089 40.75 158.621 40.2273 158.291 39.5568C157.965 38.8826 157.803 38.0985 157.803 37.2045C157.803 36.3106 157.965 35.5227 158.291 34.8409C158.621 34.1553 159.079 33.6212 159.666 33.2386C160.257 32.8523 160.946 32.6591 161.734 32.6591C162.189 32.6591 162.638 32.7348 163.081 32.8864C163.524 33.0379 163.928 33.2841 164.291 33.625C164.655 33.9621 164.945 34.4091 165.161 34.9659C165.376 35.5227 165.484 36.2083 165.484 37.0227V37.5909H158.757V36.4318H164.121C164.121 35.9394 164.022 35.5 163.825 35.1136C163.632 34.7273 163.356 34.4223 162.996 34.1989C162.64 33.9754 162.219 33.8636 161.734 33.8636C161.2 33.8636 160.738 33.9962 160.348 34.2614C159.962 34.5227 159.664 34.8636 159.456 35.2841C159.248 35.7045 159.143 36.1553 159.143 36.6364V37.4091C159.143 38.0682 159.257 38.6269 159.484 39.0852C159.715 39.5398 160.036 39.8864 160.445 40.125C160.854 40.3598 161.329 40.4773 161.871 40.4773C162.223 40.4773 162.541 40.428 162.825 40.3295C163.113 40.2273 163.361 40.0758 163.57 39.875C163.778 39.6705 163.939 39.4167 164.053 39.1136L165.348 39.4773C165.212 39.9167 164.982 40.303 164.661 40.6364C164.339 40.9659 163.941 41.2235 163.467 41.4091C162.994 41.5909 162.462 41.6818 161.871 41.6818ZM168.865 36.25V41.5H167.524V29.8636H168.865V34.1364H168.979C169.183 33.6856 169.49 33.3277 169.899 33.0625C170.312 32.7936 170.861 32.6591 171.547 32.6591C172.142 32.6591 172.662 32.7784 173.109 33.017C173.556 33.2519 173.903 33.6136 174.149 34.1023C174.399 34.5871 174.524 35.2045 174.524 35.9545V41.5H173.183V36.0455C173.183 35.3523 173.003 34.8163 172.643 34.4375C172.287 34.0549 171.793 33.8636 171.161 33.8636C170.721 33.8636 170.327 33.9564 169.979 34.142C169.634 34.3277 169.361 34.5985 169.161 34.9545C168.964 35.3106 168.865 35.7424 168.865 36.25ZM179.545 41.7045C178.992 41.7045 178.491 41.6004 178.04 41.392C177.589 41.1799 177.231 40.875 176.966 40.4773C176.701 40.0758 176.568 39.5909 176.568 39.0227C176.568 38.5227 176.667 38.1174 176.864 37.8068C177.061 37.4924 177.324 37.2462 177.653 37.0682C177.983 36.8902 178.347 36.7576 178.744 36.6705C179.146 36.5795 179.549 36.5076 179.955 36.4545C180.485 36.3864 180.915 36.3352 181.244 36.3011C181.578 36.2633 181.82 36.2008 181.972 36.1136C182.127 36.0265 182.205 35.875 182.205 35.6591V35.6136C182.205 35.053 182.051 34.6174 181.744 34.3068C181.441 33.9962 180.981 33.8409 180.364 33.8409C179.723 33.8409 179.222 33.9811 178.858 34.2614C178.494 34.5417 178.239 34.8409 178.091 35.1591L176.818 34.7045C177.045 34.1742 177.348 33.7614 177.727 33.4659C178.11 33.1667 178.527 32.9583 178.977 32.8409C179.432 32.7197 179.879 32.6591 180.318 32.6591C180.598 32.6591 180.92 32.6932 181.284 32.7614C181.652 32.8258 182.006 32.9602 182.347 33.1648C182.691 33.3693 182.977 33.678 183.205 34.0909C183.432 34.5038 183.545 35.0568 183.545 35.75V41.5H182.205V40.3182H182.136C182.045 40.5076 181.894 40.7102 181.682 40.9261C181.47 41.142 181.188 41.3258 180.835 41.4773C180.483 41.6288 180.053 41.7045 179.545 41.7045ZM179.75 40.5C180.28 40.5 180.727 40.3958 181.091 40.1875C181.458 39.9792 181.735 39.7102 181.92 39.3807C182.11 39.0511 182.205 38.7045 182.205 38.3409V37.1136C182.148 37.1818 182.023 37.2443 181.83 37.3011C181.64 37.3542 181.42 37.4015 181.17 37.4432C180.924 37.4811 180.684 37.5152 180.449 37.5455C180.218 37.572 180.03 37.5947 179.886 37.6136C179.538 37.6591 179.212 37.733 178.909 37.8352C178.61 37.9337 178.367 38.0833 178.182 38.2841C178 38.4811 177.909 38.75 177.909 39.0909C177.909 39.5568 178.081 39.9091 178.426 40.1477C178.775 40.3826 179.216 40.5 179.75 40.5ZM187.334 36.25V41.5H185.993V32.7727H187.288V34.1364H187.402C187.607 33.6932 187.917 33.3371 188.334 33.0682C188.75 32.7955 189.288 32.6591 189.947 32.6591C190.538 32.6591 191.055 32.7803 191.499 33.0227C191.942 33.2614 192.286 33.625 192.533 34.1136C192.779 34.5985 192.902 35.2121 192.902 35.9545V41.5H191.561V36.0455C191.561 35.3598 191.383 34.8258 191.027 34.4432C190.671 34.0568 190.182 33.8636 189.561 33.8636C189.133 33.8636 188.75 33.9564 188.413 34.142C188.08 34.3277 187.817 34.5985 187.624 34.9545C187.43 35.3106 187.334 35.7424 187.334 36.25ZM198.898 41.6818C198.08 41.6818 197.375 41.4886 196.784 41.1023C196.193 40.7159 195.739 40.1837 195.42 39.5057C195.102 38.8277 194.943 38.053 194.943 37.1818C194.943 36.2955 195.106 35.5133 195.432 34.8352C195.761 34.1534 196.22 33.6212 196.807 33.2386C197.398 32.8523 198.087 32.6591 198.875 32.6591C199.489 32.6591 200.042 32.7727 200.534 33C201.027 33.2273 201.43 33.5455 201.744 33.9545C202.059 34.3636 202.254 34.8409 202.33 35.3864H200.989C200.886 34.9886 200.659 34.6364 200.307 34.3295C199.958 34.0189 199.489 33.8636 198.898 33.8636C198.375 33.8636 197.917 34 197.523 34.2727C197.133 34.5417 196.828 34.9223 196.608 35.4148C196.392 35.9034 196.284 36.4773 196.284 37.1364C196.284 37.8106 196.39 38.3977 196.602 38.8977C196.818 39.3977 197.121 39.786 197.511 40.0625C197.905 40.339 198.367 40.4773 198.898 40.4773C199.246 40.4773 199.562 40.4167 199.847 40.2955C200.131 40.1742 200.371 40 200.568 39.7727C200.765 39.5455 200.905 39.2727 200.989 38.9545H202.33C202.254 39.4697 202.066 39.9337 201.767 40.3466C201.472 40.7557 201.08 41.0814 200.591 41.3239C200.106 41.5625 199.542 41.6818 198.898 41.6818ZM207.949 41.6818C207.108 41.6818 206.383 41.4962 205.773 41.125C205.167 40.75 204.699 40.2273 204.369 39.5568C204.044 38.8826 203.881 38.0985 203.881 37.2045C203.881 36.3106 204.044 35.5227 204.369 34.8409C204.699 34.1553 205.157 33.6212 205.744 33.2386C206.335 32.8523 207.025 32.6591 207.812 32.6591C208.267 32.6591 208.716 32.7348 209.159 32.8864C209.602 33.0379 210.006 33.2841 210.369 33.625C210.733 33.9621 211.023 34.4091 211.239 34.9659C211.455 35.5227 211.562 36.2083 211.562 37.0227V37.5909H204.835V36.4318H210.199C210.199 35.9394 210.1 35.5 209.903 35.1136C209.71 34.7273 209.434 34.4223 209.074 34.1989C208.718 33.9754 208.297 33.8636 207.812 33.8636C207.278 33.8636 206.816 33.9962 206.426 34.2614C206.04 34.5227 205.742 34.8636 205.534 35.2841C205.326 35.7045 205.222 36.1553 205.222 36.6364V37.4091C205.222 38.0682 205.335 38.6269 205.562 39.0852C205.794 39.5398 206.114 39.8864 206.523 40.125C206.932 40.3598 207.407 40.4773 207.949 40.4773C208.301 40.4773 208.619 40.428 208.903 40.3295C209.191 40.2273 209.439 40.0758 209.648 39.875C209.856 39.6705 210.017 39.4167 210.131 39.1136L211.426 39.4773C211.29 39.9167 211.061 40.303 210.739 40.6364C210.417 40.9659 210.019 41.2235 209.545 41.4091C209.072 41.5909 208.54 41.6818 207.949 41.6818Z" fill="white"/>
<path d="M224.5 35C223.948 35 223.5 35.4477 223.5 36C223.5 36.5523 223.948 37 224.5 37V36V35ZM261.207 36.7071C261.598 36.3166 261.598 35.6834 261.207 35.2929L254.843 28.9289C254.453 28.5384 253.819 28.5384 253.429 28.9289C253.038 29.3195 253.038 29.9526 253.429 30.3431L259.086 36L253.429 41.6569C253.038 42.0474 253.038 42.6805 253.429 43.0711C253.819 43.4616 254.453 43.4616 254.843 43.0711L261.207 36.7071ZM224.5 36V37H260.5V36V35H224.5V36Z" fill="white"/>
<defs>
<linearGradient id="paint0_linear_54_37356" x1="9.5" y1="7.5" x2="400.5" y2="115.5" gradientUnits="userSpaceOnUse">
<stop stop-color="#4BBCC9"/>
<stop offset="1" stop-color="#255D63"/>
</linearGradient>
</defs>
</svg>
