<?xml version="1.0" encoding="UTF-8"?>
<svg id="favicon" xmlns="http://www.w3.org/2000/svg" viewBox="0 0 48 48">
  <defs>
    <style>
      .cls-1 {
        fill: #fff;
      }
    </style>
  </defs>
  <path class="cls-1" d="M41.62,1.8l-5.61,18.03s-5.21-4.21-12.02-4.21-10.61,3.61-10.61,3.61L6.17,0s-14.22,45.06,18.03,47.87C56.24,50.87,41.62,1.8,41.62,1.8ZM12.58,28.24c-.6-.4-1.2-1-1.4-1.6.6.4,1.2.6,1.8.8.6,0,1.2.2,1.8.2s1.2,0,1.8-.2c.6,0,1.2-.4,1.8-.8,0,.8-.8,1.4-1.4,1.6-.6.4-1.4.6-2.2.6s-1.6,0-2.2-.6ZM31.41,39.26c-1.6,2-4.21,3.2-6.81,3-2,0-4.21-.8-5.81-2,0,0-.8-.6-1.2-1-1.6-2-2.4-4.61-1.8-7.01.6,2.2,1.6,4.21,3.2,5.61,1.6,1.4,3.61,2,5.61,2s2.8-.4,4.01-1h0c.4-.2,1-.6,1.4-1,1.6-1.4,2.8-3.2,3.2-5.61.6,2.2-.2,5.01-2,6.81l.2.2ZM34.01,29.24c-1,0-2-.8-2-2s.8-2,2-2,2,.8,2,2-.8,2-2,2Z"/>
</svg>