<svg width="70" height="92" viewBox="0 0 70 92" fill="none" xmlns="http://www.w3.org/2000/svg">
<path d="M34.8923 18.3251C34.582 18.9909 34.2201 19.5274 33.7805 19.87C31.2014 21.8867 21.2211 30.2123 20.8591 30.6842C20.4971 31.156 17.8857 48.1562 18.364 55.4087C18.4287 56.3524 18.5062 57.4772 18.6097 58.7376C18.9587 62.9909 19.5857 68.7567 20.6975 74.1735C21.7511 79.3253 23.2443 84.1603 25.3645 87.082C22.0226 85.3432 18.5515 83.2359 15.2807 81.1093C15.3583 80.5017 16.0564 74.3997 14.602 69.9396C13.0636 73.9667 10.0837 77.0112 9.73468 77.3602C4.09167 73.4043 0 70.1529 0 70.1529C0 70.1529 5.54605 65.4019 9.19171 57.7939C11.7773 52.39 11.4541 44.9953 11.4993 36.3595C13.4967 39.6109 15.3195 42.3709 15.3518 42.3386C15.4294 42.2611 15.591 37.2451 16.5412 35.0344C16.5412 35.0344 14.1237 32.4941 11.6351 30.1412C11.7062 28.5317 11.8096 26.8898 11.9647 25.2221C13.2317 11.8289 20.5488 6.44441 24.1945 5.33262C27.8402 4.22729 34.0197 3.43222 36.3208 8.26724C36.5148 8.82314 36.4178 15.0738 34.8988 18.3316L34.8923 18.3251Z" fill="white"/>
<path d="M36.3275 8.74575C36.1853 8.74575 36.0366 8.68111 35.9397 8.5583C35.7716 8.34499 35.8104 8.04118 36.0237 7.87312C36.1077 7.80848 36.3275 7.65335 36.6571 7.47236C36.8963 7.34308 37.1937 7.42711 37.3229 7.66627C37.4522 7.90544 37.3682 8.20278 37.129 8.33206C36.7994 8.51305 36.6313 8.64233 36.6313 8.64233C36.5408 8.71343 36.4374 8.74575 36.3275 8.74575Z" fill="white"/>
<path d="M69.7779 70.1532C69.7779 70.1532 65.6669 73.424 59.998 77.3928C59.998 77.3928 56.7402 74.219 55.0984 69.9399C53.5664 74.6392 54.4261 81.1613 54.4261 81.1613C51.0649 83.3461 47.4903 85.5115 44.0709 87.2697C45.3314 84.8586 46.5595 80.1464 47.4257 74.0962C48.0721 69.5973 48.5181 64.355 48.628 58.7702C48.6732 56.3204 48.6603 53.7994 48.5633 51.2527C47.9686 35.0864 46.7793 32.8305 44.9952 30.8072C43.2112 28.784 34.6659 20.9497 34.8921 18.3319C36.4111 15.074 36.5146 8.82341 36.3142 8.26751C36.3142 8.26751 36.3206 8.26751 36.3271 8.26104C36.3271 8.26104 36.3336 8.26104 36.34 8.25458C36.437 8.1964 36.5275 8.13823 36.618 8.08005C36.7085 8.02188 36.8054 7.9637 36.8959 7.90553C38.3697 7.104 42.5389 5.5979 47.9622 10.0128C52.4481 13.6649 54.7493 22.8437 55.8611 29.5726C53.1721 32.0677 50.3409 35.0476 50.3409 35.0476C51.2911 37.2518 51.4462 42.2678 51.5303 42.3518C51.5691 42.3906 54.1417 38.4605 56.5334 34.4723C56.6562 35.6099 56.7273 36.4761 56.7596 36.9609C57.1539 42.9013 59.0478 55.2926 62.2151 60.8387C65.3825 66.3847 69.7779 70.1661 69.7779 70.1661V70.1532Z" fill="white"/>
<path d="M34.8923 91.4C34.8535 91.4 34.8212 91.4 34.7824 91.387C32.1839 90.7988 28.9455 89.4996 25.1382 87.5151C25.0736 87.4828 25.0154 87.4311 24.9701 87.3665C23.0568 84.7292 21.4602 80.3208 20.2192 74.2705C20.1739 74.0443 20.2903 73.8181 20.5036 73.7211C20.5359 73.7082 20.6458 73.6759 20.8332 73.6371C25.8945 72.5059 28.9649 69.9268 29.4884 66.3845C29.5143 66.2229 29.6113 66.0872 29.7599 66.0161C29.9021 65.945 30.0767 65.9515 30.2124 66.029C30.7424 66.3264 31.0398 66.4621 31.1949 66.5203C32.3196 66.9534 33.1147 66.9792 33.6447 66.9922H33.8063H33.9292C34.4851 66.9728 35.2478 66.9534 36.3725 66.5203C36.6505 66.4169 37.0965 66.1777 37.7041 65.8222C37.8463 65.7381 38.0144 65.7317 38.163 65.8028C38.3117 65.8739 38.4151 66.0096 38.4345 66.1712C39.1391 70.961 44.4395 72.8937 47.5357 73.6177C47.7814 73.6759 47.943 73.915 47.9106 74.1607C47.0574 80.1204 45.8163 84.9813 44.5042 87.4893C44.4654 87.5604 44.4072 87.625 44.3426 87.6703C44.3296 87.6832 44.3102 87.6897 44.2908 87.6961C40.6452 89.5707 37.5166 90.8117 34.9957 91.387C34.9634 91.3935 34.9246 91.4 34.8858 91.4H34.8923ZM25.6941 86.7071C29.3204 88.5881 32.4166 89.8357 34.8858 90.411C37.271 89.8551 40.238 88.6786 43.7026 86.9011C44.9049 84.5094 46.0555 80.0105 46.8764 74.4645C43.6509 73.6435 38.706 71.6462 37.6007 67.0051C37.2322 67.2055 36.9414 67.3477 36.7216 67.4317C35.4417 67.9294 34.5432 67.9553 33.955 67.9682H33.8063H33.6189C33.063 67.9488 32.1322 67.923 30.8459 67.4317C30.7037 67.3735 30.5291 67.296 30.3287 67.199C29.4949 70.7736 26.3146 73.3591 21.2792 74.542C22.4621 80.1463 23.9488 84.2379 25.7006 86.7071H25.6941Z" fill="white"/>
<path d="M44.8467 0C44.5946 1.56427 44.6593 3.7103 42.5003 4.49243C40.1733 5.33274 39.3976 6.29587 36.9026 7.89893C36.7216 8.01528 36.5341 8.13163 36.3337 8.25444C36.3337 8.25444 36.3273 8.25444 36.3208 8.26091C36.9155 4.14338 39.4106 3.34832 42.0285 2.86999C43.8513 2.54033 44.5752 0.93727 44.8467 0Z" fill="white"/>
<path d="M51.5305 42.8237C51.4012 42.8237 51.2784 42.772 51.1814 42.6815C51.0328 42.5328 51.0328 42.5199 50.9617 41.602C50.8518 40.1799 50.5868 36.8446 49.8887 35.2286C49.8111 35.0476 49.8499 34.8407 49.9856 34.6985C50.0115 34.6662 52.8621 31.6799 55.5252 29.2042C59.4682 25.5391 60.2503 25.5197 60.7481 25.8365C61.2652 26.1661 61.8469 26.541 56.9473 34.7115C55.5511 37.0449 54.2324 39.1134 53.5731 40.1476C51.8795 42.7914 51.8666 42.7914 51.5822 42.8237C51.5628 42.8237 51.5434 42.8237 51.524 42.8237H51.5305ZM50.9164 35.1445C51.5046 36.7541 51.7632 39.3267 51.8989 40.9491C52.8168 39.5465 54.478 36.948 56.1199 34.2073C59.0545 29.3141 59.8302 27.4848 60.0241 26.819C59.5587 27.0582 58.5051 27.7757 56.1975 29.9217C53.9739 31.9837 51.6274 34.4076 50.9164 35.1445Z" fill="white"/>
<path d="M15.3453 42.8237C15.3453 42.8237 15.3065 42.8237 15.2871 42.8237C15.0803 42.7978 14.867 42.772 11.0791 36.6118C4.93193 26.6121 5.62357 26.1661 6.12776 25.8365C6.65133 25.5003 7.49165 25.5456 11.9712 29.7859C14.4404 32.1194 16.8708 34.6727 16.8967 34.6985C17.0324 34.8407 17.0712 35.0476 16.9936 35.2286C16.2955 36.8445 16.0305 40.1864 15.9206 41.6085C15.8495 42.5134 15.8495 42.5328 15.7073 42.675C15.6168 42.772 15.4875 42.8237 15.3583 42.8237H15.3453ZM6.85818 26.8125C7.15552 27.8274 8.58405 30.678 11.9194 36.0947C13.167 38.1179 14.2917 39.8826 14.9898 40.9427C15.1255 39.3202 15.3776 36.7541 15.9723 35.1445C15.3259 34.4723 13.3286 32.4103 11.2989 30.4905C8.55173 27.892 7.3559 27.0711 6.85818 26.8125Z" fill="white"/>
<path d="M25.5004 87.7544C25.3518 87.7544 25.2031 87.6897 25.1061 87.5604C25.0609 87.4958 25.0092 87.4312 24.9639 87.3665C24.8088 87.1468 24.8605 86.8429 25.0803 86.6878C25.3001 86.5327 25.6039 86.5844 25.7655 86.8042L25.8883 86.9722C26.0499 87.1855 26.0046 87.4958 25.7913 87.6574C25.7008 87.722 25.5974 87.7544 25.5004 87.7544Z" fill="white"/>
<path d="M20.6845 74.6779C20.6069 74.6779 20.5293 74.6585 20.4582 74.6197C20.329 74.5551 20.2514 74.4194 20.2255 74.2772C19.3206 69.8752 18.616 64.6588 18.1312 58.7831C18.1118 58.5892 18.2153 58.4017 18.3898 58.3112C18.5643 58.2207 18.7712 58.2401 18.9263 58.3629C20.4195 59.5652 27.2324 64.3615 30.2123 66.0356C30.3868 66.1326 30.4838 66.333 30.4579 66.5334C29.8762 70.5087 26.5343 73.3722 21.0465 74.6003C20.956 74.6197 20.8913 74.6327 20.859 74.6456C20.8008 74.6715 20.7427 74.6844 20.6845 74.6844V74.6779ZM19.1978 59.8044C19.6567 64.9755 20.2902 69.6037 21.0788 73.5855C25.8362 72.4608 28.7838 70.0368 29.4302 66.7143C26.6701 65.1178 21.5313 61.5367 19.1978 59.8044Z" fill="white"/>
<path d="M47.4256 74.5874C47.3868 74.5874 47.348 74.5874 47.3157 74.5744C43.9739 73.7923 38.2598 71.6786 37.4712 66.32C37.4453 66.1261 37.5358 65.9321 37.7039 65.8287C40.8389 63.9671 46.915 59.5522 48.3176 58.4017C48.4663 58.2789 48.6667 58.253 48.8412 58.337C49.0157 58.4211 49.1192 58.5956 49.1192 58.7895C49.0157 64.0835 48.602 69.4033 47.9169 74.1737C47.8975 74.3094 47.8199 74.4322 47.71 74.5098C47.626 74.568 47.529 74.5938 47.4321 74.5938L47.4256 74.5874ZM38.4925 66.4945C39.3263 70.7995 43.9545 72.6999 47.0184 73.4949C47.6066 69.2158 47.988 64.5101 48.1108 59.7979C45.9712 61.4268 41.2784 64.801 38.4925 66.4945Z" fill="white"/>
<path d="M40.2508 31.6344C40.2508 32.1903 38.2405 34.8017 37.0834 35.015C35.9199 35.2283 35.3317 33.0371 35.8165 32.4812C36.6374 31.5374 40.2572 30.807 40.2572 31.6344H40.2508Z" fill="white"/>
<path d="M29.3202 35.0215C28.1567 34.8082 26.1528 32.1968 26.1528 31.6409C26.1528 30.8071 29.7726 31.5439 30.5871 32.4877C31.0719 33.0436 30.4837 35.2349 29.3202 35.0215Z" fill="white"/>
<path d="M29.3269 46.217C28.1569 47.387 24.2462 44.7174 23.3865 43.5215C22.1972 41.8668 21.958 37.8591 24.1364 37.2645C26.3147 36.6698 31.3889 44.1615 29.3269 46.217Z" fill="white"/>
<path d="M43.5283 43.5216C42.6686 44.7174 38.7579 47.387 37.5879 46.217C35.5259 44.155 40.6001 36.6698 42.7785 37.2645C44.9568 37.8592 44.7177 41.8733 43.5283 43.5216Z" fill="white"/>
</svg>
