<svg width="155" height="103" viewBox="0 0 155 103" fill="none" xmlns="http://www.w3.org/2000/svg">
<path d="M140.342 102.398C139.393 102.398 138.428 102.165 137.507 101.704C136.059 100.978 134.693 100.046 133.371 99.1457C132.655 98.6579 131.918 98.1537 131.181 97.693C130.335 97.1617 129.451 96.6685 128.736 96.2673C128.508 96.1372 128.291 96.018 128.102 95.9095C127.847 96.1806 127.625 96.4462 127.424 96.6847C126.904 97.3027 126.492 97.7905 125.933 98.0019C125.337 98.2296 124.193 97.4978 123.819 96.9341C123.342 96.2131 123.277 95.362 123.635 94.5977C124.036 93.7467 124.876 93.1721 125.884 93.0691C127.597 92.8848 129.191 93.4485 130.774 94.7874C131.517 95.4163 132.254 96.0451 133.024 96.7064L133.658 97.2485C133.642 95.1832 134.043 93.8876 135.756 93.7521C136.666 93.6762 137.685 94.0882 138.298 94.7603C138.732 95.2374 138.921 95.8065 138.824 96.3486C138.715 96.9557 138.173 97.449 137.593 97.9694C137.371 98.17 137.149 98.3706 136.943 98.5874C137.723 99.7962 139.903 100.973 141.605 100.696C143.16 100.436 144.38 98.8747 144.705 96.7172C145.139 93.8822 144.391 91.3453 142.483 89.177C141.735 88.3313 140.97 87.1496 141.686 85.5179C141.816 85.2252 141.903 84.8078 141.805 84.5422L141.789 84.4934C141.599 83.9622 141.339 83.2412 140.965 83.0732C140.764 82.981 140.081 83.4852 139.756 83.7237L139.599 83.8375C139.393 83.9839 139.23 84.217 139.062 84.4609C138.976 84.5802 138.889 84.7048 138.797 84.8241L138.672 84.9813L138.509 84.8675C132.303 80.4279 125.483 77.3543 118.892 74.3837L118.789 74.3403C115.249 72.7466 111.59 71.0933 107.519 71.5487C106.939 71.6137 106.353 71.7221 105.784 71.836C105.063 71.9715 104.321 72.1178 103.573 72.1666C103.123 72.1937 102.678 71.9823 102.25 71.7709C102.06 71.6788 101.887 71.592 101.708 71.527L101.453 71.4294L101.61 71.2071C101.724 71.0499 101.833 70.8494 101.946 70.6542C102.228 70.1501 102.494 69.6731 102.9 69.608L103.269 69.5484C104.809 69.3045 106.402 69.0551 107.86 69.3966C113.297 70.6705 118.594 72.6599 123.597 75.3052C126.475 76.8285 129.435 78.3192 132.297 79.7611C133.3 80.2652 134.297 80.7694 135.3 81.2789C136.146 81.7072 136.894 81.8047 137.458 81.5662C137.908 81.3765 138.228 80.9754 138.406 80.3736C139.176 77.8476 139.794 75.3323 140.45 72.6653C140.694 71.6625 140.943 70.6597 141.198 69.646L132.01 68.3884L131.397 72.79L122.263 67.9872L123.331 68.0902C125.836 68.3341 127.489 66.8543 128.963 65.3094C132.27 61.8509 135.555 58.2515 138.726 54.7714C139.794 53.5951 140.867 52.4242 141.941 51.2533C142.526 50.6137 143.085 49.9307 143.648 49.2314C146.088 46.2066 146.126 45.7784 144.19 42.6506L144.022 42.3796L144.337 42.3362C146.982 41.9513 151.666 43.7185 153.623 45.8434L153.839 46.0765L153.541 46.1849C150.272 47.3504 149.562 50.1854 149.112 52.9934C148.538 56.5603 147.855 60.7939 147.123 65.1251C146.912 66.3664 146.993 67.2771 148.055 67.7053C148.744 67.9818 149.665 68.1173 150.023 67.8625C150.365 67.6186 150.576 67.2879 150.625 66.9193C150.684 66.4694 150.511 65.9761 150.142 65.5262C149.942 65.2823 149.692 65.0708 149.432 64.8486C149.226 64.6751 149.009 64.4908 148.82 64.2848C148.332 63.7699 148.034 63.2603 147.866 62.6369L147.79 62.3605L148.077 62.3713C150.067 62.458 151.725 63.3633 152.864 64.9895C154.246 66.9573 154.479 68.9304 153.519 70.5512C152.153 72.8659 150.083 72.5623 148.077 72.2696C147.562 72.1937 147.031 72.1178 146.521 72.0853C145.269 78.7257 145.052 84.9325 145.86 91.0417C146.164 93.3509 146.229 95.3133 146.05 97.0425C145.838 99.097 144.749 100.799 143.063 101.726C142.223 102.187 141.296 102.42 140.347 102.42L140.342 102.398ZM128.026 95.3837L128.167 95.465C128.394 95.5951 128.654 95.7415 128.942 95.9041C129.657 96.3053 130.552 96.804 131.403 97.3406C132.151 97.8068 132.893 98.3164 133.609 98.8042C134.921 99.6987 136.276 100.62 137.696 101.336C139.415 102.198 141.296 102.203 142.857 101.347C144.423 100.49 145.432 98.8964 145.627 96.9883C145.8 95.2916 145.735 93.3618 145.437 91.0851C144.613 84.8729 144.846 78.5685 146.136 71.8143L146.169 71.6354H146.348C146.933 71.6625 147.54 71.7492 148.131 71.836C150.083 72.1233 151.926 72.3889 153.151 70.3181C154.322 68.3341 153.254 66.2688 152.511 65.2118C151.508 63.7807 150.072 62.9513 148.348 62.7941C148.505 63.2224 148.749 63.5964 149.112 63.9813C149.291 64.1656 149.486 64.3336 149.692 64.5125C149.958 64.7348 150.229 64.9679 150.457 65.2443C150.901 65.781 151.107 66.3935 151.031 66.9573C150.966 67.4506 150.701 67.8734 150.256 68.1878C149.66 68.616 148.446 68.3016 147.887 68.0794C146.483 67.5156 146.5 66.2255 146.7 65.0383C147.432 60.7071 148.115 56.4735 148.69 52.9067C149.145 50.0662 149.866 47.1878 153.091 45.8868C151.21 44.0654 147.161 42.5313 144.716 42.6994C146.575 45.7513 146.462 46.4018 143.974 49.4808C143.404 50.1909 142.841 50.8793 142.25 51.5244C141.176 52.6953 140.103 53.8716 139.035 55.0424C135.859 58.5226 132.579 62.1274 129.267 65.5858C127.901 67.0115 126.389 68.3884 124.199 68.513L131.067 72.1233L131.658 67.9005L141.729 69.2774L141.67 69.505C141.393 70.5946 141.128 71.6788 140.862 72.7521C140.206 75.4245 139.588 77.9452 138.813 80.4821C138.596 81.1976 138.184 81.7017 137.626 81.9403C136.943 82.2276 136.076 82.1245 135.116 81.6421C134.119 81.138 133.116 80.6284 132.113 80.1243C129.251 78.6824 126.286 77.1917 123.407 75.663C118.436 73.0339 113.178 71.0608 107.774 69.7923C106.397 69.4725 104.847 69.711 103.345 69.9495L102.976 70.0092C102.77 70.0417 102.521 70.4862 102.326 70.844C102.255 70.9686 102.185 71.0987 102.109 71.2234C102.223 71.2722 102.337 71.3264 102.445 71.3806C102.841 71.5758 103.226 71.7546 103.556 71.733C104.277 71.6842 105.009 71.5487 105.714 71.4131C106.288 71.3047 106.885 71.1909 107.481 71.1258C111.666 70.6651 115.379 72.3347 118.973 73.9555L119.076 73.9988C125.63 76.9532 132.406 80.005 138.602 84.4067C138.645 84.3471 138.688 84.282 138.732 84.2224C138.916 83.9622 139.106 83.6911 139.366 83.5014L139.518 83.3876C140.081 82.9702 140.721 82.504 141.144 82.6883C141.681 82.9268 141.962 83.7128 142.19 84.3471L142.206 84.3959C142.353 84.797 142.233 85.3228 142.076 85.686C141.588 86.8027 141.805 87.7621 142.803 88.8951C144.792 91.1555 145.573 93.8063 145.123 96.7714C144.765 99.1132 143.415 100.815 141.675 101.103C139.718 101.428 137.284 100.056 136.504 98.6579L136.428 98.5278L136.531 98.4139C136.78 98.1429 137.051 97.8935 137.317 97.655C137.837 97.1834 138.331 96.7389 138.412 96.2782C138.504 95.7469 138.233 95.3133 137.989 95.0422C137.458 94.4568 136.569 94.1099 135.788 94.1695C134.612 94.2616 133.994 94.8525 134.086 97.7038L134.102 98.1808L132.753 97.0262C131.983 96.3649 131.246 95.7361 130.503 95.1127C129.018 93.8551 127.522 93.3238 125.933 93.4919C125.077 93.584 124.361 94.0665 124.02 94.782C123.722 95.4108 123.781 96.1101 124.172 96.7064C124.518 97.2322 125.483 97.7255 125.787 97.6117C126.242 97.4382 126.627 96.9883 127.11 96.4137C127.343 96.1372 127.608 95.8228 127.917 95.503L128.031 95.3837H128.026ZM141.946 64.8052L135.094 64.1764L134.737 63.4771L142.423 55.964L143.177 56.4627L141.946 64.8107V64.8052ZM135.365 63.7753L141.588 64.3499L142.727 56.6633L142.477 56.5006L135.257 63.5585L135.371 63.7807L135.365 63.7753Z" fill="white"/>
<path d="M34.2142 81.6963L34.2684 81.1975C34.3171 80.7259 34.3877 80.2977 34.4581 79.8803C34.5937 79.0509 34.7129 78.3408 34.5774 77.6957C34.4039 76.8609 33.9811 75.3377 33.0812 74.4921C27.3407 69.0822 21.535 63.8511 17.1171 59.8994C15.2306 58.2135 14.0273 57.5522 12.9431 57.6281C11.8481 57.704 10.7586 58.5117 9.05104 60.5174C7.88015 61.8888 6.85558 62.9621 5.81479 63.8891C4.66559 64.9136 3.30499 64.8648 2.09074 63.7427C0.990322 62.729 0.377794 60.5011 1.22885 59.5199C1.66251 59.0212 2.76835 58.452 3.40258 58.696C3.96092 58.9074 4.40002 59.3953 4.90957 59.9644C5.10472 60.1867 5.31066 60.4144 5.53833 60.6475C5.63048 60.539 5.72808 60.4252 5.8365 60.3059C6.2539 59.8343 6.77431 59.2489 6.94235 58.5984C7.25676 57.3787 7.4302 56.094 7.59825 54.8527C7.71208 53.9962 7.83133 53.1126 7.99938 52.2507C8.14574 51.4864 8.28127 50.7166 8.42221 49.9469C8.86129 47.4858 9.3112 44.9381 10.1026 42.5421C11.203 39.2029 13.8484 37.0346 17.7513 36.2703C19.5456 35.9179 20.7598 36.3624 21.4699 37.6146C22.3319 39.1487 22.2939 40.6936 21.3616 42.0868C20.9062 42.7644 20.1907 43.1818 19.3396 43.2577C18.3747 43.3444 17.3773 42.9595 16.6726 42.2331C16.4287 41.9784 16.2335 41.6802 16.0492 41.3929C16.0058 41.3279 15.9625 41.2628 15.9191 41.1978C13.5611 43.1384 13.019 46.4017 14.6724 48.879C15.5288 50.1583 16.5859 51.443 17.8164 52.6898C22.7384 57.6823 27.7906 62.7182 32.6693 67.5914L33.5583 68.4804C34.2467 69.1635 35.0978 69.9441 36.2849 70.6271C36.2578 70.4536 36.2361 70.2801 36.209 70.1121C36.1115 69.4453 36.0139 68.7623 35.8512 68.1064C35.3037 65.8947 34.7454 63.6831 34.1871 61.4714C33.374 58.2623 32.5392 54.9448 31.7478 51.6707C31.2599 49.6379 29.9697 48.6784 27.5737 48.5646L27.0588 48.5429L27.4436 48.2014C30.3221 45.6374 33.4444 43.9136 37.9003 42.4337L38.3231 42.2928L38.1605 42.7102C38.0304 43.0408 37.9057 43.3444 37.7864 43.6371C37.5425 44.228 37.3311 44.7429 37.1685 45.2742C36.2253 48.364 36.1115 51.2208 36.827 54.007C37.3095 55.8989 37.7864 57.7907 38.258 59.6826C39.0061 62.6802 39.7813 65.7755 40.589 68.8111C41.1672 70.9758 42.6417 72.2081 45.0123 72.5081L45.5978 72.584L34.2304 81.7125L34.2142 81.6963ZM13.1112 57.1998C14.2712 57.1998 15.4963 57.8883 17.3935 59.585C21.8114 63.5421 27.6226 68.7786 33.3686 74.1885C34.3009 75.0667 34.7671 76.5357 34.9894 77.6144C35.1357 78.33 35.0164 79.0835 34.8701 79.9508C34.8267 80.2056 34.7833 80.4658 34.7454 80.7368L44.5462 72.8658C41.207 72.4376 41.0497 72.2099 40.1716 68.9141C39.3585 65.8785 38.5887 62.7778 37.8353 59.7801C37.3637 57.8883 36.892 55.9964 36.4042 54.11C35.6724 51.2479 35.7808 48.3152 36.7511 45.1495C36.9192 44.5966 37.1359 44.0816 37.3799 43.4745C37.4449 43.3119 37.5154 43.1492 37.5859 42.9758C33.607 44.3364 30.7178 45.9192 28.0833 48.1851C30.3492 48.4236 31.6448 49.5078 32.1435 51.5731C32.9295 54.8418 33.7697 58.1593 34.5828 61.3684C35.1411 63.5801 35.6995 65.7918 36.2469 68.0034C36.415 68.681 36.518 69.3749 36.6156 70.0525C36.659 70.3669 36.7077 70.6759 36.7565 70.9848L36.827 71.4022L36.4529 71.2017C35.0219 70.4428 34.0298 69.5483 33.2547 68.7732L32.3657 67.8842C27.4816 63.0109 22.4349 57.975 17.5074 52.9825C16.2606 51.714 15.1873 50.4131 14.3146 49.1121C12.4932 46.3909 13.1491 42.7861 15.827 40.7262L16.0004 40.5961L16.1251 40.7749C16.2172 40.905 16.304 41.0352 16.3853 41.1707C16.5696 41.4525 16.7431 41.7236 16.9599 41.9458C17.5779 42.5801 18.4452 42.9162 19.2854 42.8457C20.0063 42.7806 20.6135 42.4337 20.9983 41.8591C21.8386 40.6069 21.8657 39.2138 21.0851 37.8261C20.4671 36.7311 19.4317 36.3679 17.8164 36.6823C14.0706 37.4141 11.5391 39.4848 10.4875 42.6722C9.7069 45.0411 9.257 47.5726 8.82334 50.0173C8.68782 50.7871 8.54687 51.5623 8.40051 52.3266C8.23788 53.1777 8.11864 54.0558 8.0048 54.9069C7.83676 56.1591 7.65788 57.46 7.33806 58.7014C7.14291 59.4495 6.58453 60.0783 6.14003 60.5824C5.9774 60.7667 5.82568 60.9402 5.72268 61.0811L5.58174 61.2817L5.40824 61.1082C5.09925 60.8047 4.83364 60.5065 4.59512 60.2409C4.10183 59.6934 3.71697 59.2597 3.25079 59.0863C2.87133 58.9453 1.94437 59.3302 1.54323 59.7964C0.909005 60.5282 1.35894 62.4959 2.37263 63.4337C3.11527 64.1222 4.26987 64.7022 5.5329 63.5747C6.55743 62.6586 7.57112 61.6015 8.72574 60.2409C10.2164 58.49 11.5012 57.3028 12.9106 57.2053C12.9757 57.2053 13.0461 57.1998 13.1112 57.1998Z" fill="white"/>
<path d="M110.197 63.6072L103.659 61.7208L103.735 61.5094C105.323 57.2162 104.673 52.9283 103.806 48.5429C103.583 47.4371 103.323 46.315 103.063 45.2363C102.955 44.7918 102.852 44.3419 102.749 43.8974H102.656C102.586 44.3093 102.516 44.7267 102.445 45.1441C102.266 46.1741 102.076 47.2365 101.968 48.2882L101.843 49.4536C101.572 51.996 101.29 54.625 101.22 57.2107C101.198 58.1052 101.459 59.0159 101.735 59.9807C101.865 60.4361 102.001 60.9131 102.109 61.401L102.174 61.6883L94.688 60.8643L95.0403 60.5499C97.6639 58.219 97.9621 55.3243 98.244 52.5218L98.2927 52.0393C98.4662 50.3914 98.6289 48.7489 98.7969 47.101C99.0896 44.163 99.3932 41.1273 99.7401 38.1459C100.125 34.8013 100.239 32.053 98.0217 29.6679L97.8158 29.4456L98.0976 29.3318C100.293 28.4428 103.15 28.806 106.364 30.378L106.614 30.5027L106.424 30.7086C105.09 32.1723 105.334 33.8147 105.595 35.5548C105.654 35.9343 105.708 36.3137 105.746 36.6932C106.169 40.7045 106.657 44.7755 107.129 48.711L107.427 51.2154C107.459 51.5081 107.546 51.855 107.855 52.267C108.007 51.6761 108.164 51.0907 108.321 50.5053C108.744 48.9224 109.183 47.2853 109.53 45.6591C109.964 43.6101 110.338 41.5068 110.695 39.4686C110.858 38.5362 111.026 37.6038 111.194 36.6769C111.519 34.9152 111.606 32.839 109.796 30.7845L109.438 30.378L109.98 30.4376C110.267 30.4701 110.555 30.5027 110.842 30.5298C113.796 30.8442 116.588 31.1423 118.978 33.5437L119.309 33.8744L118.843 33.9015C115.856 34.0695 114.929 35.7445 114.403 38.3953C113.791 41.4797 113.129 44.602 112.49 47.6268C111.731 51.2045 110.95 54.9069 110.24 58.5605C110.045 59.5688 110.094 60.6204 110.148 61.7371C110.175 62.2575 110.202 62.7995 110.202 63.3416V63.6181L110.197 63.6072ZM104.207 61.4444L109.774 63.0543C109.769 62.6152 109.747 62.1762 109.725 61.7533C109.671 60.6096 109.617 59.5308 109.823 58.4738C110.533 54.8202 111.319 51.1124 112.078 47.5347C112.717 44.5099 113.379 41.3875 113.991 38.3086C114.414 36.1782 115.146 33.896 118.35 33.5166C116.143 31.5109 113.655 31.2453 110.793 30.9417C110.679 30.9309 110.56 30.9146 110.446 30.9038C112.029 32.9583 111.931 35.0019 111.612 36.7474C111.438 37.6743 111.275 38.6067 111.113 39.5391C110.755 41.5773 110.381 43.6805 109.942 45.7404C109.595 47.3775 109.156 49.02 108.728 50.6082C108.538 51.3238 108.343 52.0393 108.159 52.7549L108.066 53.1181L107.806 52.847C107.324 52.3483 107.08 51.8605 107.009 51.2587L106.711 48.7544C106.24 44.8135 105.752 40.7425 105.329 36.7311C105.291 36.3625 105.231 35.9885 105.177 35.6144C104.928 33.9286 104.662 32.1939 105.925 30.6382C103.096 29.3047 100.494 28.9469 98.5313 29.6191C100.656 32.0855 100.526 34.9694 100.152 38.2001C99.8106 41.1815 99.507 44.2118 99.2089 47.1498C99.0463 48.7977 98.8782 50.4456 98.7047 52.0935L98.656 52.5706C98.3741 55.3243 98.0814 58.1702 95.6475 60.5499L101.621 61.2058C101.529 60.8318 101.421 60.4578 101.318 60.1C101.03 59.1026 100.765 58.1594 100.786 57.2053C100.851 54.6034 101.139 51.9634 101.41 49.4103L101.534 48.2502C101.648 47.1823 101.833 46.1144 102.017 45.0791C102.098 44.6075 102.185 44.1359 102.261 43.6588L102.288 43.48L103.074 43.4908L103.112 43.6534C103.226 44.1521 103.345 44.6508 103.464 45.1495C103.724 46.2337 103.99 47.3558 104.207 48.4725C105.074 52.847 105.725 57.1294 104.196 61.4552L104.207 61.4444Z" fill="white"/>
<path d="M94.2381 60.6801H77.927L78.2577 60.3278C79.7647 58.7232 79.678 56.8422 79.5804 54.8474C79.5641 54.5221 79.5478 54.1969 79.5424 53.8771C79.4882 51.6762 79.4123 49.4754 79.3418 47.2692C79.2117 43.3825 79.0762 39.3657 79.0491 35.414C79.0328 33.3487 78.2577 31.988 76.5394 31.0015C76.2792 30.8497 76.0244 30.6871 75.7642 30.519C75.6449 30.4431 75.5256 30.3618 75.4009 30.2859L75.1516 30.1287L75.3793 29.9444C78.5017 27.4509 91.7229 26.9901 95.0296 29.256L95.1705 29.3536L95.1 29.5108C94.623 30.5949 93.8966 31.5598 93.1919 32.4922C92.2053 33.7986 91.1862 35.1429 90.8718 36.8234C91.0832 36.7854 91.2947 36.7366 91.5006 36.6878C92.1566 36.5361 92.7799 36.3897 93.2515 36.6228C94.0375 37.0131 94.7856 37.9834 94.9591 38.829C95.1 39.5229 94.482 40.5908 93.8532 41.0516C92.5035 42.0327 90.9911 42.1574 89.7009 41.3931C88.2048 40.5041 88.1885 38.9266 88.3403 37.6473C88.3999 37.1486 88.5138 36.6553 88.6222 36.1783C88.7198 35.7501 88.8227 35.311 88.8824 34.8773C88.9528 34.3786 88.8824 33.9937 88.6656 33.7335C88.465 33.4842 88.1235 33.3378 87.6519 33.3053C87.5923 33.3053 87.5326 33.2944 87.473 33.289C84.7247 32.9204 83.2882 32.8608 82.5618 33.5167C81.83 34.178 81.7379 35.6145 81.8192 38.4008C81.8517 39.5988 81.9438 40.7805 82.0359 42.0273C82.0739 42.5314 82.1119 43.0356 82.1444 43.5559C82.2311 43.5397 82.3124 43.5234 82.3937 43.5072C82.7298 43.4367 83.0442 43.3716 83.3478 43.4367L83.4616 43.4584C84.4482 43.6589 85.2125 43.8487 85.2993 44.2715C85.4998 45.2255 84.9523 46.3043 84.7789 46.6133C84.5512 47.0198 84.2097 47.3938 83.879 47.7516C83.402 48.2666 82.9575 48.7599 82.9412 49.2369C82.8762 51.3076 83.1581 53.4163 83.7435 55.3461C83.9441 55.9912 84.6 56.5007 85.5107 56.7067C86.5786 56.9506 87.679 56.7067 88.2373 56.1104C88.5138 55.8123 88.5626 55.0425 88.4487 54.5059C88.3403 53.9909 88.1452 53.4705 87.9554 52.9718C87.7603 52.4514 87.5543 51.9093 87.4405 51.351C87.2453 50.4186 87.4622 49.4321 88.0259 48.6406C88.5897 47.8546 89.4461 47.3342 90.3731 47.2204C91.5982 47.0686 92.5089 47.6269 92.9372 48.7978C93.4575 50.2126 93.1702 51.2372 92.1348 51.6708C91.5873 51.9039 91.2512 52.1858 91.1103 52.5273C90.888 53.0748 91.1754 53.7578 91.4572 54.4191L91.5061 54.533C91.8422 55.3244 92.2595 56.105 92.6715 56.8585C92.9642 57.3951 93.2678 57.9535 93.5389 58.5172C93.7394 58.9346 93.8586 59.3846 93.9779 59.8236C94.0321 60.0188 94.0863 60.2194 94.146 60.4145L94.2327 60.6855L94.2381 60.6801ZM78.8702 60.2627H93.6744C93.6418 60.1543 93.6147 60.0405 93.5822 59.9321C93.4629 59.493 93.3545 59.081 93.1702 58.7015C92.9046 58.1486 92.6065 57.5957 92.3138 57.0591C91.9018 56.3001 91.4735 55.5087 91.132 54.701L91.0832 54.5926C90.7688 53.8554 90.449 53.0856 90.7363 52.3809C90.9206 51.9256 91.3272 51.5732 91.9885 51.2914C92.8125 50.9444 93.0022 50.153 92.5577 48.9442C92.1999 47.963 91.4627 47.5077 90.4381 47.6378C89.625 47.7408 88.877 48.1961 88.3783 48.8846C87.8796 49.5784 87.6952 50.4457 87.8633 51.2643C87.9717 51.7901 88.1669 52.3159 88.362 52.8254C88.5571 53.3404 88.7523 53.8716 88.8716 54.4191C88.9854 54.9558 88.9962 55.9261 88.5571 56.3977C87.9012 57.1078 86.6436 57.3951 85.4293 57.1187C84.3723 56.8748 83.5972 56.2622 83.3586 55.4708C82.7569 53.503 82.4696 51.3456 82.5347 49.2261C82.5564 48.5918 83.0551 48.0498 83.5809 47.4697C83.8953 47.1282 84.2205 46.7705 84.4211 46.4073C84.7409 45.8381 85.0282 44.9979 84.8981 44.3528C84.8168 44.1576 83.7381 43.9354 83.3857 43.8649L83.2719 43.8432C83.0496 43.7999 82.7895 43.8541 82.4859 43.9137C82.3287 43.9462 82.1606 43.9842 81.9872 44.0059L81.7649 44.0384L81.7487 43.8107C81.7108 43.2144 81.6673 42.6344 81.624 42.0544C81.5318 40.7968 81.4451 39.6151 81.4072 38.4062C81.3259 35.4899 81.4343 33.9666 82.2908 33.1969C83.1418 32.4325 84.6596 32.4813 87.538 32.8662C87.5868 32.8716 87.641 32.877 87.6898 32.8825C88.2807 32.9258 88.7198 33.121 88.9963 33.4679C89.2836 33.8203 89.3865 34.3135 89.2998 34.9315C89.2402 35.3869 89.1372 35.8368 89.0342 36.2704C88.9258 36.7366 88.8173 37.2191 88.7631 37.6961C88.6168 38.9158 88.6439 40.271 89.9232 41.0299C91.4789 41.9568 92.9046 41.225 93.6147 40.71C94.1731 40.3035 94.6555 39.382 94.558 38.9104C94.4116 38.1894 93.7448 37.3275 93.0727 36.9914C92.7366 36.8234 92.189 36.9535 91.6036 37.089C91.2946 37.1595 90.9802 37.2353 90.6495 37.2787L90.3785 37.3167L90.4165 37.0456C90.6821 35.1267 91.7934 33.6576 92.8667 32.232C93.5226 31.3647 94.1947 30.4702 94.6501 29.4999C91.3651 27.5159 79.2009 27.9171 75.8888 30.0908C75.9268 30.1125 75.9593 30.1396 75.9973 30.1612C76.2466 30.3239 76.4959 30.4865 76.7507 30.6329C78.6155 31.7062 79.4557 33.1806 79.4719 35.4085C79.499 39.3549 79.6346 43.3716 79.7647 47.2529C79.8406 49.4537 79.911 51.66 79.9652 53.8608C79.9761 54.1806 79.9869 54.5005 80.0032 54.8203C80.0899 56.6796 80.1821 58.5985 78.8702 60.2573V60.2627Z" fill="white"/>
<path d="M120.366 67.0439C119.998 67.0439 119.634 67.0168 119.282 66.9681C115.748 66.4531 112.501 62.9946 112.197 59.4115C112.051 57.7257 113.097 55.8284 114.929 54.4732C116.745 53.1234 118.843 52.6789 120.41 53.3023C120.773 53.4487 121.038 53.7685 121.299 54.0829C121.407 54.213 121.515 54.3485 121.629 54.4624L121.965 54.7985L121.494 54.8201C119.082 54.934 117.613 56.0181 116.881 58.2244C116.328 59.894 116.686 61.4606 117.84 62.4038C119.082 63.4175 120.935 63.4988 122.442 62.6043C124.746 61.2437 125.711 58.4358 124.73 55.9314C124.069 54.2293 123.131 52.6139 122.394 51.3942C120.556 48.3586 119.065 44.7429 121.933 40.9701C124.703 37.3273 128.454 36.0426 133.078 37.1485L133.241 37.1864C133.956 37.3545 134.699 37.5333 135.333 37.902C136.032 38.3139 136.883 38.9373 136.932 39.5824C136.981 40.1787 136.309 40.8292 135.772 41.355L135.637 41.4905C135.17 41.9458 134.672 42.3903 134.189 42.8132C133.457 43.4582 132.704 44.125 132.053 44.8568C131.809 45.1278 131.755 45.6319 131.701 46.1198C131.685 46.2824 131.663 46.4505 131.641 46.6185C131.755 46.6294 131.864 46.6402 131.978 46.6565C132.422 46.7053 132.883 46.7486 133.327 46.8408C133.788 46.9329 134.281 47.0685 134.428 47.3937C134.585 47.746 134.823 48.7435 134.46 48.9982C134.319 49.0958 134.178 49.1988 134.032 49.3018C133.159 49.9306 132.254 50.5757 131.289 50.6353C130.303 50.6949 128.98 49.833 128.47 49.0253C127.169 46.9655 127.533 44.602 129.441 42.7102C129.75 42.4066 130.075 42.1193 130.487 41.7507C130.611 41.6368 130.747 41.5176 130.893 41.3875C128.703 41.1327 127.164 41.935 125.939 42.7698C124.725 43.5992 124.367 44.9327 124.876 46.7432C125.256 48.093 125.939 49.3994 126.6 50.657L126.665 50.7817C128.226 53.7522 129.511 56.4735 129.441 59.6555C129.424 60.4957 129.294 61.2329 129.061 61.8346C127.944 64.7239 123.939 67.0494 120.372 67.0494L120.366 67.0439ZM118.881 53.4433C117.699 53.4433 116.377 53.9203 115.173 54.8093C113.46 56.0777 112.479 57.8287 112.609 59.3736C112.902 62.7778 115.981 66.0628 119.336 66.5507C122.892 67.0656 127.505 64.6534 128.66 61.6774C128.877 61.1191 128.991 60.436 129.007 59.6446C129.072 56.5602 127.809 53.8932 126.275 50.9714L126.21 50.8467C125.538 49.5674 124.844 48.2448 124.453 46.8516C123.895 44.8785 124.323 43.3444 125.684 42.4174C127.061 41.4796 128.817 40.5852 131.387 41.0351L131.809 41.111L131.49 41.3983C131.208 41.6531 130.964 41.8699 130.747 42.0597C130.34 42.4174 130.021 42.7047 129.723 43.0029C127.966 44.7484 127.625 46.9113 128.812 48.7923C129.289 49.5512 130.498 50.245 131.251 50.2071C132.091 50.1583 132.948 49.5457 133.772 48.9549C133.918 48.8519 134.064 48.7435 134.205 48.6459C134.26 48.5483 134.205 47.952 134.032 47.5617C134.016 47.5238 133.907 47.3829 133.235 47.2528C132.807 47.166 132.357 47.1227 131.923 47.0739C131.734 47.0522 131.549 47.0359 131.36 47.0142L131.132 46.9871L131.181 46.7595C131.224 46.5481 131.251 46.3095 131.278 46.0764C131.338 45.5235 131.403 44.9544 131.734 44.5803C132.4 43.8323 133.165 43.1547 133.907 42.4988C134.384 42.0759 134.883 41.6423 135.338 41.1869L135.479 41.0514C135.929 40.6177 136.547 40.016 136.515 39.6149C136.488 39.268 135.951 38.7476 135.122 38.2597C134.542 37.9236 133.831 37.7502 133.148 37.5875L132.986 37.5496C128.535 36.4817 124.931 37.7176 122.269 41.214C119.553 44.7917 120.99 48.2502 122.751 51.1665C123.499 52.4025 124.443 54.0395 125.12 55.7688C126.172 58.4629 125.137 61.4877 122.654 62.9567C120.995 63.9378 118.951 63.8457 117.575 62.7182C116.279 61.6611 115.867 59.9265 116.48 58.0834C117.228 55.823 118.686 54.6521 121.038 54.4244C121.017 54.3973 120.99 54.3702 120.968 54.3377C120.735 54.0558 120.513 53.7848 120.252 53.6818C119.835 53.5137 119.369 53.4324 118.881 53.4324V53.4433Z" fill="white"/>
<path d="M61.3883 64.2525L61.3558 64.0302C61.1444 62.6804 60.9384 61.3469 60.7378 60.0243C60.2608 56.8965 59.8054 53.9476 59.285 50.9445C58.7429 47.8167 58.1142 44.754 57.4203 41.8539C56.7481 39.0351 55.42 37.1216 53.2409 35.8314L52.9536 35.658L53.2354 35.4736C56.2819 33.468 59.632 32.4326 63.7789 32.2049L64.4402 32.167L63.9198 32.579C60.1036 35.5766 60.483 39.3766 61.3124 43.6698C62.0279 47.3614 62.6405 51.0421 63.291 54.9396C63.562 56.5712 63.8385 58.23 64.1312 59.9267C64.6733 59.7912 65.2154 59.6719 65.7412 59.5581C67.118 59.2545 68.419 58.9726 69.6332 58.4631C70.9884 57.8993 70.7391 56.4954 70.2946 55.4166C69.6008 53.7416 68.8906 51.5137 69.5465 49.1394C70.0724 47.2421 71.4546 46.1634 73.2489 46.2772C74.886 46.3694 76.2141 47.6433 76.5393 49.4429C76.7128 50.3862 76.5827 51.1234 76.149 51.7034C75.5961 52.4406 74.5282 52.9014 72.902 53.102C73.0483 53.4435 73.1893 53.7741 73.3302 54.1048C73.7205 55.0263 74.0891 55.8991 74.5282 56.7393C74.9781 57.6012 75.4877 58.4251 76.0298 59.2979C76.2737 59.6882 76.523 60.0893 76.767 60.5013L76.9188 60.7507L61.3937 64.2525H61.3883ZM53.745 35.6471C55.8537 36.9969 57.1601 38.9484 57.8323 41.7563C58.5262 44.6673 59.1604 47.7354 59.7024 50.874C60.2228 53.8771 60.6782 56.8369 61.1552 59.9646C61.345 61.2168 61.5401 62.4745 61.7406 63.7483L76.2629 60.4688C76.0677 60.1435 75.8725 59.8291 75.6774 59.5201C75.1299 58.642 74.615 57.8072 74.1596 56.9344C73.7151 56.078 73.3411 55.1998 72.9454 54.2674C72.7719 53.8554 72.593 53.4326 72.4033 53.0098L72.2894 52.7442L72.5767 52.7171C74.2463 52.549 75.3088 52.1316 75.8183 51.4541C76.1761 50.977 76.2791 50.3428 76.1328 49.5243C75.8401 47.9197 74.6691 46.7868 73.2272 46.7C71.6227 46.6133 70.4301 47.5403 69.9531 49.2586C69.3297 51.4974 69.9748 53.5519 70.6849 55.2648C71.4221 57.0374 71.1077 58.3167 69.8013 58.8588C68.5491 59.3792 67.2318 59.6665 65.8387 59.9755C65.2424 60.1056 64.6299 60.2411 64.0173 60.3929L63.7951 60.4471L63.7571 60.2248C63.4536 58.4522 63.1663 56.7176 62.879 55.0155C62.2285 51.1234 61.6159 47.4481 60.9058 43.7566C60.0873 39.5175 59.697 35.7447 63.1663 32.6711C59.5127 32.953 56.4988 33.9071 53.7504 35.6525L53.745 35.6471Z" fill="white"/>
<path d="M47.6195 70.6216L47.5166 70.5403C47.4515 70.5024 47.2672 70.3885 47.3106 70.1988C48.2972 66.2254 47.3322 62.3658 46.4053 58.6309C46.221 57.8991 46.0421 57.1619 45.8686 56.4301C45.4133 54.4461 44.8929 52.4404 44.3888 50.4998C44.0527 49.2096 43.7166 47.9195 43.3968 46.6239C42.8927 44.5857 42.2476 42.7047 39.8625 42.0109L39.689 41.9621L39.7811 41.2248L49.5494 36.8286L49.9505 37.4954L49.8529 37.6092C48.1508 39.6528 47.6629 42.0434 48.3676 44.9164C49.5764 49.8764 50.7419 54.7605 51.8261 59.4386C52.4874 62.2953 54.2221 64.1926 57.2794 65.4069L57.713 65.5803L47.6141 70.6271L47.6195 70.6216ZM40.1498 41.6531C42.6108 42.4445 43.3047 44.4882 43.8034 46.5155C44.1232 47.8111 44.4593 49.0958 44.7953 50.3859C45.2995 52.3266 45.8253 54.3377 46.2806 56.3271C46.4487 57.0589 46.633 57.7907 46.8119 58.5225C47.7388 62.2357 48.6929 66.079 47.7713 70.0741L56.7047 65.6128C53.7721 64.3335 52.0917 62.3929 51.4249 59.5253C50.3408 54.8526 49.1753 49.9685 47.9665 45.0085C47.2455 42.0488 47.7279 39.5769 49.4409 37.4466L49.3867 37.3544L40.1714 41.5013L40.1551 41.6477L40.1498 41.6531Z" fill="white"/>
<path d="M33.2489 102.268C33.0266 102.268 32.8044 102.257 32.5767 102.236C30.4301 102.051 28.5708 100.848 27.6113 99.0264C26.6952 97.2918 26.7386 95.2861 27.7306 93.5298C28.7768 91.6705 30.2566 89.9033 32.0075 88.4072C40.1658 81.4469 48.3077 76.449 56.8996 73.1369C60.6887 71.6733 64.7598 70.2693 69.0097 68.9575C70.1697 68.5997 71.5574 68.8328 72.7716 69.0822C73.3191 69.196 73.7908 70.2964 73.7528 70.8764C73.7095 71.4944 72.441 71.9823 72.2946 72.0365C71.8989 72.1828 71.3785 72.1937 70.7064 72.0636C67.9092 71.5378 64.9766 71.8251 61.4748 72.9688C51.7933 76.14 42.3232 81.6366 32.5333 89.7732C31.254 90.8411 30.0561 92.3372 28.8798 94.3538C28.3106 95.3241 28.1696 96.3865 28.4624 97.4273C28.7822 98.5494 29.6115 99.5414 30.7499 100.149C31.7907 100.707 32.5334 100.598 33.1513 99.807C33.4332 99.4438 33.5524 99.1349 33.5199 98.8692C33.4765 98.5494 33.2272 98.235 32.6797 97.8176C32.1431 97.4056 31.8232 96.0938 32.1322 95.5517C32.555 94.8091 33.5633 94.1423 34.3222 94.1044C35.0811 94.0556 36.3116 94.6465 36.6206 95.3566C36.9296 96.0721 36.9675 96.8744 37.0109 97.8013C37.0217 98.0615 37.0326 98.3326 37.0542 98.6036C37.3578 98.2838 37.656 97.9586 37.9487 97.6442C38.8431 96.6738 39.6888 95.7632 40.6266 94.9175C42.5076 93.2208 44.5511 92.8414 46.5351 93.8225C47.2453 94.1694 48.0692 95.156 48.1126 95.9475C48.156 96.7443 47.4892 97.7526 46.8116 98.273C46.443 98.5548 45.8576 98.4898 45.2938 98.4193C45.0662 98.3922 44.833 98.3651 44.627 98.3597H44.3777L44.4265 98.1103C44.4644 97.9098 44.497 97.7146 44.5295 97.514C44.6108 97.0099 44.6975 96.495 44.8601 96.0017C44.9415 95.7523 45.1908 95.6005 45.4294 95.4487C45.4402 95.4433 45.451 95.4379 45.4618 95.4325C44.4102 94.6898 43.2881 94.8687 42.0305 95.98C40.8542 97.0208 39.7538 98.1862 38.6859 99.3192C38.3606 99.6607 38.0408 100.002 37.7156 100.344C36.4796 101.634 35.016 102.263 33.2597 102.263L33.2489 102.268ZM70.3594 69.196C69.9258 69.196 69.5084 69.2448 69.1289 69.3586C64.8899 70.665 60.8243 72.069 57.046 73.5272C48.4975 76.823 40.3935 81.7993 32.2732 88.727C30.5819 90.1689 29.0966 91.9469 28.0883 93.7358C27.1668 95.3674 27.1288 97.2213 27.9745 98.8259C28.8689 100.523 30.6036 101.639 32.6038 101.813C34.5282 101.981 36.0948 101.401 37.3958 100.051C37.721 99.7149 38.0408 99.3734 38.3661 99.0319C39.4394 97.8935 40.5506 96.7226 41.7378 95.671C43.2448 94.3375 44.6542 94.2074 45.9389 95.2915L46.1394 95.4596L45.9334 95.6168C45.8413 95.6873 45.7383 95.7523 45.6353 95.8119C45.4673 95.9149 45.2775 96.0288 45.245 96.1372C45.0932 96.598 45.0119 97.1021 44.9306 97.5899C44.9089 97.7146 44.8873 97.8339 44.8656 97.9586C45.0174 97.9694 45.18 97.9911 45.3318 98.0073C45.8088 98.067 46.3075 98.1266 46.5406 97.9423C47.1152 97.4978 47.7114 96.6034 47.6789 95.9746C47.6464 95.4 46.9796 94.5218 46.3346 94.202C44.0362 93.069 42.1064 94.1369 40.8922 95.2319C39.9707 96.0667 39.1304 96.972 38.2414 97.9315C37.8457 98.3597 37.4391 98.7988 37.0218 99.2324L36.7073 99.5631L36.664 99.1078C36.6206 98.6524 36.5989 98.2296 36.5826 97.8176C36.5447 96.9286 36.5067 96.1643 36.2303 95.5192C36.0134 95.0259 34.9944 94.4838 34.3439 94.5164C33.7259 94.5489 32.8424 95.1398 32.4954 95.7523C32.2894 96.1101 32.5659 97.1888 32.9345 97.4761C33.3898 97.823 33.8614 98.2567 33.9373 98.8096C33.9861 99.1945 33.8397 99.601 33.482 100.062C32.7393 101.021 31.7798 101.168 30.5548 100.517C29.3188 99.8558 28.4081 98.7717 28.0612 97.5412C27.7414 96.4082 27.904 95.1994 28.522 94.1423C29.7254 92.0824 30.9505 90.5484 32.2732 89.448C42.1064 81.2734 51.6199 75.7551 61.3555 72.5677C64.9278 71.3968 67.9309 71.1041 70.7985 71.6462C71.3947 71.76 71.8447 71.7546 72.1645 71.6353C72.8258 71.3914 73.3354 71.012 73.3463 70.8385C73.3788 70.3669 72.9451 69.5375 72.7012 69.4887C71.9585 69.3369 71.1454 69.1906 70.3811 69.1906L70.3594 69.196Z" fill="white"/>
<path d="M127.023 95.0204C126.08 96.0016 125.565 96.896 124.817 97.1779C124.367 97.3513 123.31 96.7334 122.952 96.1913C121.971 94.7114 123.017 92.8467 124.865 92.6515C126.687 92.4618 128.232 93.1665 129.592 94.3211C130.644 95.2101 131.685 96.1046 132.828 97.0803C132.742 94.397 133.251 93.4484 134.726 93.3291C136.168 93.2153 137.799 94.3753 137.572 95.6817C137.436 96.4732 136.384 97.102 135.636 97.9259C136.401 99.2865 138.78 100.566 140.591 100.268C142.233 99.9967 143.518 98.4084 143.865 96.1154C144.31 93.2044 143.534 90.6079 141.594 88.4071C140.678 87.3663 140.239 86.3255 140.835 84.9703C140.981 84.6342 141.079 84.1626 140.96 83.8374C140.748 83.2465 140.477 82.4551 140.006 82.2491C139.659 82.0973 138.921 82.6828 138.433 83.0405C138.097 83.2845 137.881 83.7019 137.588 84.065C131.457 79.6796 124.697 76.6061 117.932 73.5596C114.3 71.9225 110.62 70.2421 106.451 70.7029C105.134 70.8492 103.838 71.2287 102.521 71.3154C101.946 71.3534 101.339 70.9143 100.743 70.692C101.122 70.1608 101.442 69.2447 101.892 69.1742C103.497 68.9249 105.237 68.605 106.771 68.9628C112.235 70.2421 117.471 72.2153 122.453 74.8552C126.324 76.9042 130.254 78.8503 134.162 80.8288C135.729 81.6203 137.084 81.3709 137.566 79.7989C138.656 76.2266 139.463 72.573 140.417 68.8327C137.035 68.372 134.097 67.9708 130.785 67.5155C130.595 68.8923 130.389 70.3668 130.183 71.8304C127.706 70.5294 125.066 69.1363 122.263 67.6618C124.876 67.9166 126.578 66.3771 128.069 64.8213C132.476 60.2137 136.737 55.4651 141.052 50.7599C141.653 50.104 142.212 49.4155 142.77 48.7271C145.274 45.6264 145.312 45.1115 143.323 41.9024C145.86 41.5338 150.484 43.2413 152.424 45.3446C149.123 46.5209 148.337 49.318 147.855 52.3157C147.204 56.3595 146.548 60.4088 145.865 64.4473C145.665 65.6236 145.665 66.7511 146.922 67.2607C147.584 67.5263 148.625 67.7269 149.091 67.3908C149.991 66.7457 149.996 65.6561 149.248 64.7455C148.863 64.2793 148.332 63.9378 147.914 63.4933C147.524 63.0813 147.193 62.6097 147.009 61.9321C148.988 62.0188 150.565 62.9295 151.633 64.4582C152.75 66.0519 153.335 68.0088 152.284 69.7922C150.598 72.6435 147.79 71.3046 145.296 71.2178C144.071 77.6143 143.746 83.9837 144.597 90.4182C144.857 92.3805 144.987 94.4079 144.787 96.3702C144.364 100.517 140.293 102.767 136.552 100.886C134.335 99.7744 132.357 98.2078 130.243 96.8797C129.056 96.1371 127.82 95.4757 127.012 95.0096L127.023 95.0204ZM141.914 55.9367C141.746 55.8283 141.583 55.7145 141.415 55.6061C138.932 58.0346 136.444 60.4631 133.961 62.8916C134.037 63.0433 134.119 63.2005 134.194 63.3523C136.347 63.5529 138.499 63.748 140.732 63.954C141.149 61.119 141.534 58.5278 141.914 55.9367Z" fill="white"/>
<path d="M33.4335 80.5957C33.5798 79.1646 33.9484 78.0425 33.737 77.0342C33.493 75.8579 33.016 74.5082 32.1812 73.7167C26.9339 68.773 21.5891 63.9268 16.2117 59.1186C12.5364 55.8282 11.0403 56.0071 7.84743 59.7583C6.84459 60.9346 5.78216 62.0838 4.63296 63.1083C3.5217 64.1003 2.2912 63.9811 1.19079 62.9674C0.150003 62.0079 -0.402947 59.8992 0.345118 59.0373C0.767937 58.5494 1.78702 58.0833 2.28573 58.273C3.03921 58.5549 3.57586 59.4222 4.51365 60.3437C4.90937 59.7962 5.84719 59.0048 6.10196 58.0345C6.63862 55.9638 6.75785 53.7846 7.16441 51.6705C7.7878 48.4235 8.23229 45.106 9.25681 41.989C10.3952 38.536 13.1598 36.5574 16.7429 35.8582C18.1252 35.5871 19.4533 35.7118 20.2339 37.0995C21.0307 38.5143 21.0524 39.9834 20.1363 41.3494C19.1931 42.7588 17.0627 42.8021 15.7726 41.4686C15.4365 41.1217 15.198 40.6772 14.9161 40.2761C12.3792 42.2221 11.6745 45.7239 13.4471 48.3747C14.3632 49.7461 15.4528 51.0363 16.6128 52.2126C21.8276 57.5087 27.0966 62.7505 32.3602 68.0033C33.2492 68.8923 34.214 69.7108 35.5096 70.3938C35.3415 69.4018 35.244 68.399 35.0001 67.4287C33.6449 61.9483 32.2192 56.4841 30.8965 50.9929C30.3815 48.8517 29.0318 47.8435 26.5274 47.7296C29.7202 44.8783 33.0702 43.2792 36.9081 42.0053C36.5178 43.0027 36.1601 43.7779 35.9107 44.5856C35.0217 47.5019 34.7994 50.4454 35.5638 53.4323C36.8268 58.3651 38.014 63.3197 39.3258 68.2363C40.2365 71.6514 40.3124 71.6297 44.0148 72.0959C40.41 74.9906 36.9949 77.7335 33.4226 80.6011L33.4335 80.5957Z" fill="white"/>
<path d="M108.945 62.7074C107.02 62.1491 105.09 61.5962 102.895 60.9619C104.505 56.6145 103.838 52.2454 102.971 47.8816C102.651 46.2663 102.245 44.6726 101.876 43.068C101.73 43.068 101.583 43.068 101.437 43.068C101.193 44.5967 100.873 46.1145 100.71 47.6486C100.396 50.6245 100.038 53.6005 99.9624 56.5874C99.9299 57.9426 100.515 59.3194 100.857 60.8264C98.8566 60.6042 96.7045 60.3711 94.1296 60.0892C96.9647 57.5685 97.1382 54.4787 97.4526 51.4485C97.935 46.8192 98.3633 42.179 98.8945 37.5551C99.2469 34.4653 99.4745 31.4405 97.1219 28.909C99.2468 28.0471 102.087 28.4157 105.215 29.9498C103.508 31.8199 104.266 33.9991 104.489 36.0969C104.998 40.9431 105.595 45.7838 106.169 50.6245C106.223 51.1016 106.402 51.5623 106.912 52.0936C107.513 49.7572 108.191 47.4426 108.69 45.0845C109.324 42.1031 109.806 39.0946 110.354 36.0969C110.733 34.0153 110.658 32.0205 108.907 30.0257C112.262 30.3997 115.222 30.4973 117.78 33.0721C114.512 33.2564 113.644 35.2404 113.146 37.734C111.801 44.4666 110.289 51.1612 108.977 57.8992C108.684 59.417 108.934 61.0378 108.934 62.7183L108.945 62.7074Z" fill="white"/>
<path d="M89.5816 36.4493C90.5736 36.3137 91.5277 35.8855 92.124 36.1836C92.8504 36.5468 93.5605 37.4575 93.7231 38.2489C93.8478 38.8452 93.2623 39.8481 92.6986 40.26C91.5385 41.1057 90.1129 41.3821 88.7794 40.5907C87.4405 39.7939 87.3592 38.417 87.5164 37.051C87.6248 36.1186 87.9283 35.2133 88.053 34.2809C88.194 33.2402 87.7711 32.5571 86.6328 32.4704C86.5786 32.4704 86.5243 32.4596 86.4647 32.4542C80.9355 31.7115 80.4151 32.1668 80.5723 37.7773C80.6211 39.5445 80.7892 41.3062 80.9139 43.171C81.4397 43.1005 81.8787 42.9271 82.269 43.0084C82.9141 43.1439 83.9874 43.339 84.0579 43.6805C84.1989 44.3581 83.9224 45.2309 83.5592 45.8814C83.0171 46.8517 81.7215 47.6811 81.6944 48.6026C81.6294 50.6571 81.9058 52.8091 82.5075 54.7768C83.0279 56.4844 86.1395 56.9289 87.3537 55.6225C87.7006 55.2484 87.7386 54.3974 87.6193 53.8282C87.3917 52.7549 86.8387 51.7466 86.6111 50.6733C86.2262 48.8194 87.5597 47.0197 89.3648 46.7921C90.5194 46.6511 91.3217 47.1878 91.7066 48.234C92.0698 49.226 92.1565 50.3643 91.0182 50.8468C89.2022 51.6111 89.7985 52.847 90.2755 53.9854C90.8555 55.3569 91.6632 56.6307 92.3083 57.9805C92.5848 58.5605 92.7094 59.2164 92.9046 59.8452C87.6898 59.8452 82.6268 59.8452 77.3632 59.8452C79.19 57.9046 78.7618 55.5303 78.7022 53.2428C78.545 47.0902 78.2523 40.9376 78.2089 34.7851C78.1926 32.6168 77.3687 31.2128 75.5907 30.1883C75.2112 29.9714 74.848 29.7221 74.4631 29.4727C77.4717 27.0713 90.6224 26.5672 93.8641 28.7951C92.6932 31.4567 89.999 33.3432 89.5708 36.4438L89.5816 36.4493Z" fill="white"/>
<path d="M120.437 53.9907C117.824 54.1154 116.366 55.3459 115.634 57.5358C115.049 59.3084 115.45 60.9563 116.664 61.9429C117.965 63.0054 119.933 63.0975 121.505 62.1652C123.863 60.772 124.925 57.9099 123.884 55.2374C123.266 53.6492 122.421 52.1314 121.532 50.6677C119.515 47.334 118.404 43.9731 121.06 40.4767C123.846 36.8123 127.56 35.6739 131.994 36.731C132.747 36.9099 133.539 37.0833 134.189 37.4628C134.807 37.826 135.642 38.4277 135.685 38.9806C135.729 39.5281 134.97 40.2111 134.449 40.7207C133.273 41.8699 131.94 42.8781 130.855 44.0978C130.438 44.5694 130.508 45.4747 130.351 46.1794C130.98 46.2552 131.62 46.2986 132.243 46.4233C132.585 46.4938 133.083 46.613 133.192 46.857C133.371 47.2635 133.495 48.0604 133.295 48.2013C132.341 48.8626 131.289 49.7408 130.232 49.8004C129.365 49.8492 128.096 49.074 127.603 48.288C126.313 46.239 126.795 43.9677 128.541 42.233C129.007 41.7723 129.511 41.3495 130.319 40.6231C127.999 40.2165 126.313 40.9212 124.773 41.9729C123.256 43.0082 123.196 44.6453 123.624 46.1739C124.025 47.5888 124.741 48.9331 125.429 50.2504C126.882 53.0149 128.253 55.7958 128.183 59.0266C128.167 59.7313 128.075 60.4793 127.82 61.1298C126.616 64.2413 121.933 66.6644 118.274 66.1332C114.826 65.6345 111.666 62.2628 111.368 58.7664C111.07 55.2917 116.03 51.573 119.293 52.8686C119.754 53.0529 120.063 53.6058 120.442 53.9853L120.437 53.9907Z" fill="white"/>
<path d="M60.5264 63.3741C59.8272 58.9074 59.2037 54.5871 58.4557 50.283C57.9244 47.2311 57.3065 44.1901 56.591 41.1815C56.0001 38.7097 54.8346 36.5251 52.314 35.0235C55.5447 32.8986 58.949 31.9988 62.7544 31.7874C58.7755 34.9097 59.2634 38.9102 60.0711 43.0842C61.101 48.402 61.9304 53.7631 62.9224 59.5579C64.9335 59.0484 66.9013 58.7719 68.6738 58.0293C70.0832 57.4438 69.9911 56.0182 69.449 54.7063C68.6304 52.7278 68.1155 50.7058 68.7118 48.5646C69.2159 46.7487 70.5061 45.7567 72.1973 45.8542C73.7423 45.941 74.9836 47.1389 75.2926 48.8465C75.6666 50.8738 74.5824 51.9797 71.5522 52.2887C72.1594 53.6655 72.6581 54.9719 73.2977 56.2025C73.9536 57.4601 74.7451 58.6472 75.5473 59.9753C70.5006 61.1137 65.6057 62.2195 60.5264 63.3687V63.3741Z" fill="white"/>
<path d="M48.655 36.8505C46.7957 39.0838 46.4542 41.599 47.1264 44.3419C48.3081 49.1773 49.4627 54.0126 50.5848 58.8587C51.2624 61.7859 53.0458 63.7374 56.1627 64.9733C52.7639 66.67 49.7012 68.2041 46.6005 69.749C46.6005 69.749 46.4596 69.6677 46.4704 69.6244C47.6576 64.827 46.0801 60.3115 45.0339 55.7526C44.2804 52.4677 43.3698 49.2152 42.5621 45.9411C42.0417 43.8378 41.337 41.8918 38.8813 41.1762C38.8976 41.0299 38.9193 40.8835 38.9355 40.7371C42.1013 39.3115 45.2616 37.8912 48.4273 36.4656C48.5032 36.5903 48.5791 36.7204 48.655 36.845V36.8505Z" fill="white"/>
<path d="M35.824 98.4681C37.1684 97.0641 38.361 95.671 39.7107 94.4567C41.3424 92.9877 43.3101 92.3697 45.3862 93.3942C46.0638 93.7303 46.8119 94.6519 46.8499 95.3403C46.8878 96.0558 46.2536 97.0045 45.6302 97.4869C45.1911 97.823 44.2804 97.5411 43.5757 97.5357C43.7112 96.8364 43.7872 96.1209 44.004 95.4487C44.0907 95.1885 44.4972 95.0367 44.7628 94.8253C43.6082 93.855 42.3235 93.8875 40.8328 95.2048C39.2987 96.56 37.9273 98.0994 36.507 99.5793C35.1464 101 33.504 101.574 31.5471 101.406C27.3135 101.043 24.7711 96.7226 26.8636 93.0148C27.9314 91.1284 29.4384 89.3612 31.0917 87.9518C38.5561 81.5824 46.7198 76.2701 55.9242 72.714C59.9031 71.18 63.9469 69.7977 68.0233 68.54C69.1346 68.1985 70.4898 68.4262 71.6823 68.6702C72.0726 68.7515 72.528 69.7109 72.4955 70.2422C72.4738 70.6054 71.6932 71.0282 71.1783 71.2233C70.7392 71.3859 70.1808 71.3317 69.6983 71.245C66.4947 70.6379 63.4048 71.1637 60.3638 72.1557C49.4952 75.7171 40.063 81.7613 31.3519 88.998C29.8558 90.2394 28.6415 91.9415 27.6495 93.6327C26.3323 95.8932 27.308 98.4952 29.601 99.7148C30.593 100.246 31.5037 100.295 32.2626 99.3191C33.0161 98.3434 32.6908 97.7525 31.753 97.0316C31.3031 96.6846 30.9996 95.4921 31.2598 95.0367C31.6338 94.3862 32.5607 93.7303 33.2817 93.6924C33.9864 93.6544 35.1139 94.2236 35.3741 94.8199C35.8024 95.8065 35.6831 97.0316 35.824 98.4681Z" fill="white"/>
<path d="M84.2051 1.41104L84.1845 1.57601C82.5898 2.71701 80.7065 3.28751 78.5344 3.28751C77.4897 3.28751 75.9637 3.02632 73.9567 2.50393C73.8054 2.46269 73.3862 2.34584 72.6988 2.15338C72.0252 1.94718 71.4616 1.79596 71.0079 1.69973C70.5543 1.6035 70.135 1.55538 69.7501 1.55538C69.1727 1.55538 68.6984 1.74784 68.3272 2.13276C67.9698 2.51768 67.7911 3.0057 67.7911 3.59682C67.7911 4.16045 67.963 4.64847 68.3066 5.06088C68.6503 5.45955 69.0971 5.76198 69.647 5.96819C70.1968 6.16065 70.733 6.30499 71.2554 6.40122C71.7778 6.4837 72.3001 6.52494 72.8225 6.52494C73.3174 6.52494 73.8879 6.49058 74.534 6.42184C74.7402 6.10566 74.8983 5.86508 75.0083 5.70012C75.1183 5.53516 75.2489 5.36332 75.4001 5.18461C75.5651 5.00589 75.6682 4.88904 75.7094 4.83406C75.7644 4.77907 75.8881 4.68284 76.0806 4.54537C76.2868 4.4079 76.4311 4.32542 76.5136 4.29792C76.5961 4.25668 76.8023 4.15358 77.1322 3.98861C77.4759 3.8099 77.7509 3.66556 77.9571 3.55558L77.9983 3.63806C77.4759 4.25668 76.8435 5.10212 76.1012 6.17439C77.1597 6.02318 78.2045 5.79635 79.2355 5.49391L79.3386 5.53516L79.4005 5.76198L79.318 5.88571C78.5207 6.18814 77.3316 6.46308 75.7507 6.71053C74.5547 8.74509 73.9567 10.5528 73.9567 12.1337C73.9567 13.0548 74.1972 13.8178 74.6784 14.4226C75.1733 15.0137 75.8675 15.3093 76.7611 15.3093C77.8471 15.3093 78.83 14.8213 79.7098 13.8452C80.5896 12.8555 81.0295 11.8107 81.0295 10.7109C81.0295 10.326 80.9333 9.99607 80.7408 9.72113C80.5621 9.44619 80.2872 9.30872 79.916 9.30872C79.1874 9.30872 78.5207 9.63178 77.9158 10.2779C77.3109 10.924 76.8435 11.6457 76.5136 12.443L76.4105 12.5049L76.2455 12.4843L76.1631 12.3399C76.4518 11.4739 76.9329 10.6903 77.6065 9.9892C78.2939 9.2881 79.0499 8.93755 79.8748 8.93755C80.4796 8.93755 80.9539 9.13688 81.2976 9.53555C81.6413 9.93421 81.8131 10.436 81.8131 11.0408C81.8131 12.2643 81.277 13.3504 80.2047 14.2989C79.1462 15.2337 78.0052 15.7011 76.7817 15.7011C75.5719 15.7011 74.6028 15.2887 73.8742 14.4639C73.1456 13.639 72.7813 12.6149 72.7813 11.3914C72.7813 9.87922 73.2762 8.37392 74.266 6.87549C73.7711 6.91673 73.2831 6.93735 72.8019 6.93735C72.2108 6.93735 71.6265 6.88924 71.0492 6.79301C70.4718 6.68303 69.8875 6.51807 69.2964 6.29812C68.7053 6.06442 68.2241 5.71387 67.853 5.24647C67.4956 4.77907 67.3168 4.22919 67.3168 3.59682C67.3168 2.63453 67.6536 1.87844 68.3272 1.32856C69.0146 0.764929 69.8532 0.483114 70.843 0.483114C71.9015 0.483114 73.4618 0.799296 75.5238 1.43166C77.5996 2.06402 79.1737 2.38021 80.2459 2.38021C81.4557 2.38021 82.686 2.00904 83.937 1.2667H84.0814L84.2051 1.41104ZM93.7925 9.82424C93.7925 10.1679 93.4695 10.7728 92.8234 11.6388C92.1773 12.5049 91.4487 13.3091 90.6376 14.0515C89.8265 14.7938 89.2216 15.165 88.823 15.165C88.4655 15.165 88.1837 15.0481 87.9775 14.8144C87.7713 14.567 87.6682 14.2577 87.6682 13.8865C87.6682 13.3916 87.895 12.5943 88.3487 11.4945C88.8161 10.381 89.0498 9.60428 89.0498 9.16438C89.0498 8.88944 88.9329 8.75197 88.6992 8.75197C88.3281 8.75197 87.8676 9.06815 87.3177 9.70051C86.7678 10.3329 86.2591 11.034 85.7917 11.8038C85.3381 12.5599 84.9188 13.261 84.5339 13.9071C84.149 14.5532 83.9221 14.8832 83.8534 14.8969C83.3585 15.0206 83.0698 15.0825 82.9873 15.0825C82.8774 15.0825 82.8224 15.0137 82.8224 14.8763C82.8224 14.6701 83.2348 13.1235 84.0596 10.2366C84.2658 9.48056 84.4995 8.70385 84.7607 7.90652C85.0357 7.09545 85.3793 6.16752 85.7917 5.12274C86.2179 4.07797 86.6922 3.15692 87.2146 2.35959C87.7507 1.54851 88.2868 0.991755 88.823 0.689321L88.9055 0.709941C89.2079 1.08111 89.3591 1.58975 89.3591 2.23586C89.3591 3.34937 88.9811 4.54537 88.225 5.82384C87.4826 7.08857 86.6166 8.2502 85.6268 9.30872L84.7607 12.4637C84.7745 12.4499 84.8707 12.3056 85.0494 12.0306C85.2419 11.7557 85.3725 11.5632 85.4412 11.4533C85.5237 11.3295 85.668 11.1233 85.8742 10.8346C86.0942 10.5322 86.2729 10.2985 86.4104 10.1335C86.5478 9.96858 86.7265 9.76237 86.9465 9.51493C87.1665 9.25373 87.3589 9.04753 87.5239 8.89631C87.6888 8.74509 87.8676 8.59387 88.06 8.44266C88.2662 8.27769 88.4587 8.16084 88.6374 8.09211C88.8298 8.02337 89.0086 7.989 89.1735 7.989C89.5035 7.989 89.7784 8.10585 89.9983 8.33955C90.232 8.55951 90.3489 8.83445 90.3489 9.16438C90.3489 9.67302 90.1152 10.4703 89.6478 11.5564C89.1941 12.6286 88.9673 13.426 88.9673 13.9484C88.9673 14.0583 89.0086 14.1477 89.091 14.2164C89.1735 14.2852 89.2698 14.3195 89.3797 14.3195C90.1083 14.3195 91.5655 12.718 93.7513 9.51493C93.7788 9.6524 93.7925 9.7555 93.7925 9.82424ZM88.2456 3.28751C88.2456 2.77887 88.17 2.36646 88.0188 2.05028C87.3177 2.88885 86.6303 4.8753 85.9567 8.00962C85.9155 8.17459 85.888 8.29144 85.8742 8.36017C87.4551 6.68303 88.2456 4.99215 88.2456 3.28751ZM101.176 9.61803C101.176 9.9892 100.88 10.5872 100.289 11.412C99.5331 12.4568 98.667 13.3572 97.6909 14.1133C96.7149 14.8694 95.7114 15.2474 94.6803 15.2474C93.9243 15.2474 93.3331 15.0069 92.907 14.5257C92.4808 14.0446 92.2677 13.426 92.2677 12.6699C92.2677 11.5976 92.7076 10.5253 93.5875 9.45306C94.481 8.3808 95.4571 7.84466 96.5156 7.84466C96.9555 7.84466 97.3473 7.97526 97.6909 8.23645C98.0346 8.49765 98.2065 8.84132 98.2065 9.26748C98.2065 9.70739 98.0415 10.1404 97.7116 10.5666C97.3816 10.979 96.9624 11.3364 96.4537 11.6388C95.9451 11.9413 95.4571 12.2025 94.9897 12.4224C94.5223 12.6286 94.0755 12.7936 93.6493 12.9173C93.6493 13.426 93.7799 13.8452 94.0411 14.1752C94.316 14.5051 94.701 14.6701 95.1959 14.6701C95.7457 14.6701 96.33 14.4845 96.9486 14.1133C97.5672 13.7421 98.1377 13.261 98.6601 12.6699C99.1962 12.065 99.6568 11.5014 100.042 10.979C100.44 10.4429 100.798 9.90672 101.114 9.37058C101.155 9.45307 101.176 9.53555 101.176 9.61803ZM96.9898 9.12314C96.9898 8.60075 96.763 8.33955 96.3094 8.33955C95.8282 8.33955 95.3814 8.61449 94.969 9.16438C94.5566 9.70051 94.2542 10.2573 94.0617 10.8346C93.8693 11.412 93.7318 11.9482 93.6493 12.443C94.5154 12.2506 95.2852 11.8519 95.9588 11.2471C96.6462 10.6422 96.9898 9.93421 96.9898 9.12314Z" fill="white"/>
</svg>
