<svg width="24" height="24" viewBox="0 0 24 24" fill="none" xmlns="http://www.w3.org/2000/svg">
<path d="M24 12C24 14.3734 23.2962 16.6934 21.9776 18.6668C20.6591 20.6402 18.7849 22.1783 16.5922 23.0865C14.3995 23.9948 11.9867 24.2324 9.65892 23.7694C7.33115 23.3064 5.19295 22.1635 3.51472 20.4853C1.83649 18.807 0.693604 16.6689 0.230582 14.3411C-0.232441 12.0133 0.00519937 9.60051 0.913451 7.4078C1.8217 5.21508 3.35977 3.34094 5.33316 2.02236C7.30655 0.703787 9.62663 0 12 0C15.1826 0 18.2348 1.26428 20.4853 3.51472C22.7357 5.76515 24 8.8174 24 12ZM9.252 12.384L3.4995 8.142V16.071L9.252 12.384ZM4.986 7.7475L10.6005 11.8875C11.0116 12.1565 11.4922 12.2997 11.9835 12.2997C12.4748 12.2997 12.9554 12.1565 13.3665 11.8875L18.981 7.7475H4.986ZM18.531 16.2585L13.641 13.122C13.124 13.3712 12.5574 13.5006 11.9835 13.5006C11.4096 13.5006 10.843 13.3712 10.326 13.122L5.4315 16.2585H18.531ZM20.4675 8.1435L14.715 12.384L20.4675 16.074V8.1435Z" fill="white"/>
</svg>
