<svg width="15" height="12" viewBox="0 0 15 12" fill="none" xmlns="http://www.w3.org/2000/svg">
<path d="M2 4.5C2 4.77614 2.22386 5 2.5 5C2.77614 5 3 4.77614 3 4.5V4.29289C3 4.10536 3.0745 3.9255 3.20711 3.79289L3.29289 3.70711C3.68342 3.31658 4.31658 3.31658 4.70711 3.70711L4.79289 3.79289C4.9255 3.9255 5 4.10536 5 4.29289V4.5C5 4.77614 5.22386 5 5.5 5C5.77614 5 6 4.77614 6 4.5V4.31103C6 4.11329 6.08497 3.92507 6.23328 3.79428L6.3386 3.70141C6.71655 3.36812 7.28345 3.36812 7.6614 3.70141L7.76672 3.79428C7.91503 3.92507 8 4.11329 8 4.31103V4.5C8 4.77614 8.22386 5 8.5 5C8.77614 5 9 4.77614 9 4.5V1C9 0.447715 9.44771 0 10 0C10.5523 0 11 0.447715 11 1V7.20305C11 7.85134 11.6074 8.32828 12.2372 8.17452L13.7628 7.80204C14.3926 7.64829 15 8.12522 15 8.77351V8.94575C15 9.29054 14.8224 9.61101 14.53 9.79375L11.2432 11.848C11.0843 11.9473 10.9006 12 10.7132 12H3C1.34315 12 1.61066e-08 10.6569 0 9V1C0 0.447715 0.447715 0 1 0C1.55228 0 2 0.447715 2 1V4.5Z" fill="white"/>
</svg>
