<svg width="14" height="13" viewBox="0 0 14 13" fill="none" xmlns="http://www.w3.org/2000/svg">
<path d="M0 6.36803C0 5.62465 0.782313 5.14116 1.44721 5.47361L6.55279 8.02639C6.83431 8.16716 7.16569 8.16716 7.44721 8.02639L12.5528 5.47361C13.2177 5.14116 14 5.62465 14 6.36803V11.75C14 12.3023 13.5523 12.75 13 12.75H1C0.447716 12.75 0 12.3023 0 11.75V6.36803Z" fill="white"/>
<path d="M0 3.28876C0 3.50168 0.125387 3.69462 0.319948 3.78109L6.59378 6.56949C6.85234 6.68441 7.14748 6.68441 7.40605 6.5695L13.68 3.78117C13.8746 3.69469 14 3.50174 14 3.2888C14 2.99123 13.7588 2.75 13.4612 2.75H0.538763C0.241212 2.75 0 2.99121 0 3.28876Z" fill="white"/>
<path d="M4 1.75C4 1.19772 4.44772 0.75 5 0.75H9C9.55228 0.75 10 1.19772 10 1.75V3.75C10 4.30228 9.55228 4.75 9 4.75H5C4.44772 4.75 4 4.30228 4 3.75V1.75Z" stroke="white" stroke-width="1.5" stroke-miterlimit="1.74345" stroke-linejoin="round"/>
</svg>
